G04 Layer_Physical_Order=2*
G04 Layer_Color=32768*
%FSLAX25Y25*%
%MOIN*%
G70*
G01*
G75*
%ADD17C,0.01000*%
%ADD28C,0.02000*%
%ADD29C,0.11874*%
%ADD30C,0.03200*%
D17*
X287000Y-395D02*
Y336395D01*
X0Y0D02*
Y336395D01*
D28*
X-20000D02*
G03*
X-20395Y336000I0J-395D01*
G01*
X307395D02*
G03*
X307000Y336395I-395J0D01*
G01*
Y-395D02*
G03*
X307395Y0I0J395D01*
G01*
X-20395D02*
G03*
X-20000Y-395I395J0D01*
G01*
X-20395Y0D02*
Y336000D01*
X-20000Y336395D02*
X307000D01*
X307395Y0D02*
Y336000D01*
X-20000Y-395D02*
X307000D01*
X0Y0D02*
X143500D01*
Y56000D01*
X0Y0D02*
Y56000D01*
X143500D01*
Y0D02*
X287000D01*
Y56000D01*
X143500Y0D02*
Y56000D01*
X287000D01*
X0D02*
X143500D01*
Y112000D01*
X0Y56000D02*
Y112000D01*
X143500D01*
Y56000D02*
X287000D01*
Y112000D01*
X143500Y56000D02*
Y112000D01*
X287000D01*
X0D02*
X143500D01*
Y168000D01*
X0Y112000D02*
Y168000D01*
X143500D01*
Y112000D02*
X287000D01*
Y168000D01*
X143500Y112000D02*
Y168000D01*
X287000D01*
X0D02*
X143500D01*
Y224000D01*
X0Y168000D02*
Y224000D01*
X143500D01*
Y168000D02*
X287000D01*
Y224000D01*
X143500Y168000D02*
Y224000D01*
X287000D01*
X0D02*
X143500D01*
Y280000D01*
X0Y224000D02*
Y280000D01*
X143500D01*
Y224000D02*
X287000D01*
Y280000D01*
X143500Y224000D02*
Y280000D01*
X287000D01*
X0D02*
X143500D01*
Y336000D01*
X0Y280000D02*
Y336000D01*
X143500D01*
Y280000D02*
X287000D01*
Y336000D01*
X143500Y280000D02*
Y336000D01*
X287000D01*
D29*
X-10000Y22500D02*
D03*
Y310000D02*
D03*
X297500D02*
D03*
Y22500D02*
D03*
D30*
X126500Y37500D02*
D03*
X50370Y25370D02*
D03*
X109000Y40000D02*
D03*
Y37500D02*
D03*
X107000Y38500D02*
D03*
Y36000D02*
D03*
X85500Y40000D02*
D03*
X82000D02*
D03*
X85500Y43000D02*
D03*
X82000D02*
D03*
X132500Y40000D02*
D03*
X130000D02*
D03*
X132500Y43500D02*
D03*
X130000D02*
D03*
X58500D02*
D03*
X61500D02*
D03*
Y39000D02*
D03*
X58500D02*
D03*
X34500Y43500D02*
D03*
X37500D02*
D03*
Y39000D02*
D03*
X34500D02*
D03*
X10500D02*
D03*
X13500D02*
D03*
Y43500D02*
D03*
X10500D02*
D03*
X113000Y11000D02*
D03*
X108500D02*
D03*
X114500Y14500D02*
D03*
X111000D02*
D03*
X107500D02*
D03*
X114500Y17500D02*
D03*
X111000D02*
D03*
X107500D02*
D03*
X16000Y25500D02*
D03*
X26000D02*
D03*
X21000D02*
D03*
X11000D02*
D03*
X270000Y37500D02*
D03*
X193870Y25370D02*
D03*
X252500Y40000D02*
D03*
Y37500D02*
D03*
X250500Y38500D02*
D03*
Y36000D02*
D03*
X229000Y40000D02*
D03*
X225500D02*
D03*
X229000Y43000D02*
D03*
X225500D02*
D03*
X276000Y40000D02*
D03*
X273500D02*
D03*
X276000Y43500D02*
D03*
X273500D02*
D03*
X202000D02*
D03*
X205000D02*
D03*
Y39000D02*
D03*
X202000D02*
D03*
X178000Y43500D02*
D03*
X181000D02*
D03*
Y39000D02*
D03*
X178000D02*
D03*
X154000D02*
D03*
X157000D02*
D03*
Y43500D02*
D03*
X154000D02*
D03*
X256500Y11000D02*
D03*
X252000D02*
D03*
X258000Y14500D02*
D03*
X254500D02*
D03*
X251000D02*
D03*
X258000Y17500D02*
D03*
X254500D02*
D03*
X251000D02*
D03*
X159500Y25500D02*
D03*
X169500D02*
D03*
X164500D02*
D03*
X154500D02*
D03*
X126500Y93500D02*
D03*
X50370Y81370D02*
D03*
X109000Y96000D02*
D03*
Y93500D02*
D03*
X107000Y94500D02*
D03*
Y92000D02*
D03*
X85500Y96000D02*
D03*
X82000D02*
D03*
X85500Y99000D02*
D03*
X82000D02*
D03*
X132500Y96000D02*
D03*
X130000D02*
D03*
X132500Y99500D02*
D03*
X130000D02*
D03*
X58500D02*
D03*
X61500D02*
D03*
Y95000D02*
D03*
X58500D02*
D03*
X34500Y99500D02*
D03*
X37500D02*
D03*
Y95000D02*
D03*
X34500D02*
D03*
X10500D02*
D03*
X13500D02*
D03*
Y99500D02*
D03*
X10500D02*
D03*
X113000Y67000D02*
D03*
X108500D02*
D03*
X114500Y70500D02*
D03*
X111000D02*
D03*
X107500D02*
D03*
X114500Y73500D02*
D03*
X111000D02*
D03*
X107500D02*
D03*
X16000Y81500D02*
D03*
X26000D02*
D03*
X21000D02*
D03*
X11000D02*
D03*
X270000Y93500D02*
D03*
X193870Y81370D02*
D03*
X252500Y96000D02*
D03*
Y93500D02*
D03*
X250500Y94500D02*
D03*
Y92000D02*
D03*
X229000Y96000D02*
D03*
X225500D02*
D03*
X229000Y99000D02*
D03*
X225500D02*
D03*
X276000Y96000D02*
D03*
X273500D02*
D03*
X276000Y99500D02*
D03*
X273500D02*
D03*
X202000D02*
D03*
X205000D02*
D03*
Y95000D02*
D03*
X202000D02*
D03*
X178000Y99500D02*
D03*
X181000D02*
D03*
Y95000D02*
D03*
X178000D02*
D03*
X154000D02*
D03*
X157000D02*
D03*
Y99500D02*
D03*
X154000D02*
D03*
X256500Y67000D02*
D03*
X252000D02*
D03*
X258000Y70500D02*
D03*
X254500D02*
D03*
X251000D02*
D03*
X258000Y73500D02*
D03*
X254500D02*
D03*
X251000D02*
D03*
X159500Y81500D02*
D03*
X169500D02*
D03*
X164500D02*
D03*
X154500D02*
D03*
X126500Y149500D02*
D03*
X50370Y137370D02*
D03*
X109000Y152000D02*
D03*
Y149500D02*
D03*
X107000Y150500D02*
D03*
Y148000D02*
D03*
X85500Y152000D02*
D03*
X82000D02*
D03*
X85500Y155000D02*
D03*
X82000D02*
D03*
X132500Y152000D02*
D03*
X130000D02*
D03*
X132500Y155500D02*
D03*
X130000D02*
D03*
X58500D02*
D03*
X61500D02*
D03*
Y151000D02*
D03*
X58500D02*
D03*
X34500Y155500D02*
D03*
X37500D02*
D03*
Y151000D02*
D03*
X34500D02*
D03*
X10500D02*
D03*
X13500D02*
D03*
Y155500D02*
D03*
X10500D02*
D03*
X113000Y123000D02*
D03*
X108500D02*
D03*
X114500Y126500D02*
D03*
X111000D02*
D03*
X107500D02*
D03*
X114500Y129500D02*
D03*
X111000D02*
D03*
X107500D02*
D03*
X16000Y137500D02*
D03*
X26000D02*
D03*
X21000D02*
D03*
X11000D02*
D03*
X270000Y149500D02*
D03*
X193870Y137370D02*
D03*
X252500Y152000D02*
D03*
Y149500D02*
D03*
X250500Y150500D02*
D03*
Y148000D02*
D03*
X229000Y152000D02*
D03*
X225500D02*
D03*
X229000Y155000D02*
D03*
X225500D02*
D03*
X276000Y152000D02*
D03*
X273500D02*
D03*
X276000Y155500D02*
D03*
X273500D02*
D03*
X202000D02*
D03*
X205000D02*
D03*
Y151000D02*
D03*
X202000D02*
D03*
X178000Y155500D02*
D03*
X181000D02*
D03*
Y151000D02*
D03*
X178000D02*
D03*
X154000D02*
D03*
X157000D02*
D03*
Y155500D02*
D03*
X154000D02*
D03*
X256500Y123000D02*
D03*
X252000D02*
D03*
X258000Y126500D02*
D03*
X254500D02*
D03*
X251000D02*
D03*
X258000Y129500D02*
D03*
X254500D02*
D03*
X251000D02*
D03*
X159500Y137500D02*
D03*
X169500D02*
D03*
X164500D02*
D03*
X154500D02*
D03*
X126500Y205500D02*
D03*
X50370Y193370D02*
D03*
X109000Y208000D02*
D03*
Y205500D02*
D03*
X107000Y206500D02*
D03*
Y204000D02*
D03*
X85500Y208000D02*
D03*
X82000D02*
D03*
X85500Y211000D02*
D03*
X82000D02*
D03*
X132500Y208000D02*
D03*
X130000D02*
D03*
X132500Y211500D02*
D03*
X130000D02*
D03*
X58500D02*
D03*
X61500D02*
D03*
Y207000D02*
D03*
X58500D02*
D03*
X34500Y211500D02*
D03*
X37500D02*
D03*
Y207000D02*
D03*
X34500D02*
D03*
X10500D02*
D03*
X13500D02*
D03*
Y211500D02*
D03*
X10500D02*
D03*
X113000Y179000D02*
D03*
X108500D02*
D03*
X114500Y182500D02*
D03*
X111000D02*
D03*
X107500D02*
D03*
X114500Y185500D02*
D03*
X111000D02*
D03*
X107500D02*
D03*
X16000Y193500D02*
D03*
X26000D02*
D03*
X21000D02*
D03*
X11000D02*
D03*
X270000Y205500D02*
D03*
X193870Y193370D02*
D03*
X252500Y208000D02*
D03*
Y205500D02*
D03*
X250500Y206500D02*
D03*
Y204000D02*
D03*
X229000Y208000D02*
D03*
X225500D02*
D03*
X229000Y211000D02*
D03*
X225500D02*
D03*
X276000Y208000D02*
D03*
X273500D02*
D03*
X276000Y211500D02*
D03*
X273500D02*
D03*
X202000D02*
D03*
X205000D02*
D03*
Y207000D02*
D03*
X202000D02*
D03*
X178000Y211500D02*
D03*
X181000D02*
D03*
Y207000D02*
D03*
X178000D02*
D03*
X154000D02*
D03*
X157000D02*
D03*
Y211500D02*
D03*
X154000D02*
D03*
X256500Y179000D02*
D03*
X252000D02*
D03*
X258000Y182500D02*
D03*
X254500D02*
D03*
X251000D02*
D03*
X258000Y185500D02*
D03*
X254500D02*
D03*
X251000D02*
D03*
X159500Y193500D02*
D03*
X169500D02*
D03*
X164500D02*
D03*
X154500D02*
D03*
X126500Y261500D02*
D03*
X50370Y249370D02*
D03*
X109000Y264000D02*
D03*
Y261500D02*
D03*
X107000Y262500D02*
D03*
Y260000D02*
D03*
X85500Y264000D02*
D03*
X82000D02*
D03*
X85500Y267000D02*
D03*
X82000D02*
D03*
X132500Y264000D02*
D03*
X130000D02*
D03*
X132500Y267500D02*
D03*
X130000D02*
D03*
X58500D02*
D03*
X61500D02*
D03*
Y263000D02*
D03*
X58500D02*
D03*
X34500Y267500D02*
D03*
X37500D02*
D03*
Y263000D02*
D03*
X34500D02*
D03*
X10500D02*
D03*
X13500D02*
D03*
Y267500D02*
D03*
X10500D02*
D03*
X113000Y235000D02*
D03*
X108500D02*
D03*
X114500Y238500D02*
D03*
X111000D02*
D03*
X107500D02*
D03*
X114500Y241500D02*
D03*
X111000D02*
D03*
X107500D02*
D03*
X16000Y249500D02*
D03*
X26000D02*
D03*
X21000D02*
D03*
X11000D02*
D03*
X270000Y261500D02*
D03*
X193870Y249370D02*
D03*
X252500Y264000D02*
D03*
Y261500D02*
D03*
X250500Y262500D02*
D03*
Y260000D02*
D03*
X229000Y264000D02*
D03*
X225500D02*
D03*
X229000Y267000D02*
D03*
X225500D02*
D03*
X276000Y264000D02*
D03*
X273500D02*
D03*
X276000Y267500D02*
D03*
X273500D02*
D03*
X202000D02*
D03*
X205000D02*
D03*
Y263000D02*
D03*
X202000D02*
D03*
X178000Y267500D02*
D03*
X181000D02*
D03*
Y263000D02*
D03*
X178000D02*
D03*
X154000D02*
D03*
X157000D02*
D03*
Y267500D02*
D03*
X154000D02*
D03*
X256500Y235000D02*
D03*
X252000D02*
D03*
X258000Y238500D02*
D03*
X254500D02*
D03*
X251000D02*
D03*
X258000Y241500D02*
D03*
X254500D02*
D03*
X251000D02*
D03*
X159500Y249500D02*
D03*
X169500D02*
D03*
X164500D02*
D03*
X154500D02*
D03*
X126500Y317500D02*
D03*
X50370Y305370D02*
D03*
X109000Y320000D02*
D03*
Y317500D02*
D03*
X107000Y318500D02*
D03*
Y316000D02*
D03*
X85500Y320000D02*
D03*
X82000D02*
D03*
X85500Y323000D02*
D03*
X82000D02*
D03*
X132500Y320000D02*
D03*
X130000D02*
D03*
X132500Y323500D02*
D03*
X130000D02*
D03*
X58500D02*
D03*
X61500D02*
D03*
Y319000D02*
D03*
X58500D02*
D03*
X34500Y323500D02*
D03*
X37500D02*
D03*
Y319000D02*
D03*
X34500D02*
D03*
X10500D02*
D03*
X13500D02*
D03*
Y323500D02*
D03*
X10500D02*
D03*
X113000Y291000D02*
D03*
X108500D02*
D03*
X114500Y294500D02*
D03*
X111000D02*
D03*
X107500D02*
D03*
X114500Y297500D02*
D03*
X111000D02*
D03*
X107500D02*
D03*
X16000Y305500D02*
D03*
X26000D02*
D03*
X21000D02*
D03*
X11000D02*
D03*
X270000Y317500D02*
D03*
X193870Y305370D02*
D03*
X252500Y320000D02*
D03*
Y317500D02*
D03*
X250500Y318500D02*
D03*
Y316000D02*
D03*
X229000Y320000D02*
D03*
X225500D02*
D03*
X229000Y323000D02*
D03*
X225500D02*
D03*
X276000Y320000D02*
D03*
X273500D02*
D03*
X276000Y323500D02*
D03*
X273500D02*
D03*
X202000D02*
D03*
X205000D02*
D03*
Y319000D02*
D03*
X202000D02*
D03*
X178000Y323500D02*
D03*
X181000D02*
D03*
Y319000D02*
D03*
X178000D02*
D03*
X154000D02*
D03*
X157000D02*
D03*
Y323500D02*
D03*
X154000D02*
D03*
X256500Y291000D02*
D03*
X252000D02*
D03*
X258000Y294500D02*
D03*
X254500D02*
D03*
X251000D02*
D03*
X258000Y297500D02*
D03*
X254500D02*
D03*
X251000D02*
D03*
X159500Y305500D02*
D03*
X169500D02*
D03*
X164500D02*
D03*
X154500D02*
D03*
M02*
