M48
;Layer_Color=9474304
;FILE_FORMAT=2:5
INCH,LZ
;TYPE=PLATED
T2F00S00C0.01200
;TYPE=NON_PLATED
T1F00S00C0.07874
%
T02
X0011Y00255
X0016
X0021
X0026
X005037Y002537
X009105Y000395
X01085Y0011
X0113
X01145Y00145
Y00175
X0111
Y00145
X01075
Y00175
X013Y0033
X01325
X0135
X01375
X01545Y00255
X01595
X01645
X01695
X019387Y002537
X023455Y000395
X0252Y0011
X02565
X0258Y00145
Y00175
X02545
Y00145
X0251
Y00175
X02735Y0033
X0276
X02785
X0281
Y00355
X02785
X0276
X02735
Y004
X0276
Y00435
X02735
X02815
X0284
Y004
X02815
X027Y00375
X02575Y0038
Y00355
Y00405
Y0043
X02525Y004
Y00375
X02505Y00385
Y0036
X0239Y0042
X0237Y004
Y0044
X0229Y0043
Y004
X02255
Y0043
X0213Y00435
X021
Y00395
X0213
X0205Y0039
X0202
Y00435
X0205
X023455Y005995
X0252Y0067
X02565
X0258Y00705
Y00735
X02545
Y00705
X0251
Y00735
X02505Y0092
Y00945
X02525Y00935
Y0096
X02575Y00965
Y0094
Y00915
Y0099
X02735Y00995
X0276
Y0096
X02735
Y00915
Y0089
X0276
Y00915
X02785
Y0089
X0281
Y00915
X02815Y0096
X0284
Y00995
X02815
X027Y00935
X0239Y0098
X0237Y0096
Y01
X0229Y0099
Y0096
X02255
Y0099
X0213Y00995
X021
Y00955
X0213
X0205Y0095
X0202
Y00995
X0205
X023455Y011595
X0252Y0123
X02565
X0258Y01265
Y01295
X02545
Y01265
X0251
Y01295
X02505Y0148
Y01505
X02525Y01495
Y0152
X02575Y01525
Y015
Y01475
Y0155
X02735Y01555
X0276
Y0152
X02735
Y01475
Y0145
X0276
Y01475
X02785
Y0145
X0281
Y01475
X02815Y0152
X0284
Y01555
X02815
X027Y01495
X0239Y0154
X0237Y0152
Y0156
X0229Y0155
Y0152
X02255
Y0155
X0213Y01555
X021
Y01515
X0213
X0205Y0151
X0202
Y01555
X0205
X023455Y017195
X0252Y0179
X02565
X0258Y01825
Y01855
X02545
Y01825
X0251
Y01855
X0189Y01555
X0186
Y01515
X0189
X0181Y0151
X0178
Y01555
X0181
X0165
X0162
Y01515
X0165
X0157Y0151
X0154
Y01555
X0157
X01405
X0138
Y0152
X01405
X01375Y01475
X0135
X01325
X013
Y0145
X01325
X0135
X01375
X01325Y0152
X013
Y01555
X01325
X01265Y01495
X0114Y015
Y01475
Y01525
Y0155
X0109Y0152
Y01495
X0107Y01505
Y0148
X00955Y0154
X00935Y0152
Y0156
X00855Y0155
Y0152
X0082
Y0155
X00695Y01555
X00665
Y01515
X00695
X00615Y0151
X00585
Y01555
X00615
X00455
Y01515
X005037Y013737
X00455Y00995
Y00955
X00585Y0095
X00615
Y00995
X00585
X00665
X00695
Y00955
X00665
X0082Y0096
Y0099
X00855
Y0096
X00935
X00955Y0098
X00935Y01
X009105Y011595
X01085Y0123
X0113
X01145Y01265
Y01295
X0111
Y01265
X01075
Y01295
X0109Y0096
Y00935
X0107Y00945
Y0092
X0114Y00915
Y0094
Y00965
Y0099
X013Y00995
X01325
Y0096
X013
Y00915
Y0089
X01325
Y00915
X0135
Y0089
X01375
Y00915
X0138Y0096
X01405
Y00995
X0138
X0154
X0157
Y0095
X0154
X0162Y00955
X0165
Y00995
X0162
X0178
X0181
Y0095
X0178
X0186Y00955
X0189
Y00995
X0186
X019387Y008137
X01695Y00815
X01645
X01595
X01545
X0154Y00435
X0157
Y0039
X0154
X0162Y00395
X0165
Y00435
X0162
X0178
X0181
Y0039
X0178
X0186Y00395
X0189
Y00435
X0186
X01405
X0138
Y004
X01405
X01375Y00355
X0135
X01325
X013
Y004
X01325
Y00435
X013
X01265Y00375
X0114Y0038
Y00355
Y00405
Y0043
X0109Y004
Y00375
X0107Y00385
Y0036
X00955Y0042
X00935Y004
Y0044
X00855Y0043
Y004
X0082
Y0043
X00695Y00435
X00665
Y00395
X00695
X00615Y0039
X00585
Y00435
X00615
X00455
Y00395
X005037Y008137
X009105Y005995
X01085Y0067
X0113
X01145Y00705
Y00735
X0111
Y00705
X01075
Y00735
X01265Y00935
X01545Y01375
X01595
X01645
X01695
X019387Y013737
X0113Y0179
X01085
X01075Y01825
Y01855
X0111
Y01825
X01145
Y01855
X009105Y017195
X00425Y01555
Y01515
X00375Y0151
X00345
Y01555
X00375
X00215
X00185
Y01515
X00215
X00135Y0151
X00105
Y01555
X00135
X0016Y01375
X0021
X0026
X0011
X00105Y00995
X00135
Y0095
X00105
X00185Y00955
X00215
Y00995
X00185
X00345
X00375
Y0095
X00345
X00425Y00955
Y00995
X0026Y00815
X0021
X0016
X0011
X00105Y00435
X00135
Y0039
X00105
X00185Y00395
X00215
Y00435
X00185
X00345
X00375
Y0039
X00345
X00425Y00395
Y00435
Y02075
Y02115
X00375
X00345
Y0207
X00375
X00215Y02075
X00185
Y02115
X00215
X00135
X00105
Y0207
X00135
X0016Y01935
X0021
X0026
X0011
Y02495
X0016
X0021
X0026
X00215Y02635
X00185
Y02675
X00215
X00135
X00105
Y0263
X00135
X00345
X00375
Y02675
X00345
X00425
Y02635
Y03195
Y03235
X00375
X00345
Y0319
X00375
X00215Y03195
X00185
Y03235
X00215
X00135
X00105
Y0319
X00135
X0016Y03055
X0021
X0026
X0011
X005037Y030537
X00455Y03195
Y03235
X00585
X00615
Y0319
X00585
X00665Y03195
X00695
Y03235
X00665
X0082Y0323
Y032
X00855
Y0323
X00935Y0324
X00955Y0322
X00935Y032
X0107Y03185
Y0316
X0109Y03175
Y032
X0114Y03205
Y0318
Y03155
Y0323
X013Y03235
X01325
Y032
X013
Y03155
Y0313
X01325
Y03155
X0135
Y0313
X01375
Y03155
X0138Y032
X01405
Y03235
X0138
X0154
X0157
Y0319
X0154
X0162Y03195
X0165
Y03235
X0162
X0178
X0181
Y0319
X0178
X0186Y03195
X0189
Y03235
X0186
X019387Y030537
X01695Y03055
X01645
X01595
X01545
X0154Y02675
X0157
Y0263
X0154
X0162Y02635
X0165
Y02675
X0162
X0178
X0181
Y0263
X0178
X0186Y02635
X0189
Y02675
X0186
X019387Y024937
X01695Y02495
X01645
X01595
X01545
X01375Y0257
X0135
X01325
X013
Y02595
X01325
X0135
X01375
X0138Y0264
X01405
Y02675
X0138
X01325
X013
Y0264
X01325
X01265Y02615
X0114Y0262
Y02595
Y02645
Y0267
X0109Y0264
Y02615
X0107Y02625
Y026
X00955Y0266
X00935Y0264
Y0268
X00855Y0267
Y0264
X0082
Y0267
X00695Y02675
X00665
Y02635
X00695
X00615Y0263
X00585
Y02675
X00615
X00455
Y02635
X005037Y024937
X00455Y02115
Y02075
X00585Y0207
X00615
Y02115
X00585
X00665
X00695
Y02075
X00665
X0082Y0208
Y0211
X00855
Y0208
X00935
X00955Y021
X00935Y0212
X009105Y022795
X01085Y0235
X0113
X01145Y02385
Y02415
X0111
Y02385
X01075
Y02415
X0109Y0208
Y02055
X0107Y02065
Y0204
X0114Y02035
Y0206
Y02085
Y0211
X013Y02115
X01325
Y0208
X013
Y02035
Y0201
X01325
Y02035
X0135
Y0201
X01375
Y02035
X0138Y0208
X01405
Y02115
X0138
X0154
X0157
Y0207
X0154
X0162Y02075
X0165
Y02115
X0162
X0178
X0181
Y0207
X0178
X0186Y02075
X0189
Y02115
X0186
X019387Y019337
X01695Y01935
X01645
X01595
X01545
X01265Y02055
X005037Y019337
X009105Y028395
X01085Y0291
X0113
X01145Y02945
Y02975
X0111
Y02945
X01075
Y02975
X01265Y03175
X0202Y0319
X0205
Y03235
X0202
X021
X0213
Y03195
X021
X02255Y032
Y0323
X0229
Y032
X0237
X0239Y0322
X0237Y0324
X02505Y03185
Y0316
X02525Y03175
Y032
X02575Y03205
Y0318
Y03155
Y0323
X02735Y03235
X0276
Y032
X02735
Y03155
Y0313
X0276
Y03155
X02785
Y0313
X0281
Y03155
X02815Y032
X0284
Y03235
X02815
X027Y03175
X0258Y02975
Y02945
X02545
Y02975
X0251
Y02945
X0252Y0291
X02565
X02575Y0267
Y02645
Y0262
Y02595
X02525Y02615
Y0264
X02505Y02625
Y026
X0239Y0266
X0237Y0264
Y0268
X0229Y0267
Y0264
X02255
Y0267
X0213Y02675
X021
Y02635
X0213
X0205Y0263
X0202
Y02675
X0205
X023455Y028395
X02735Y02675
X0276
Y0264
X02735
Y02595
Y0257
X0276
Y02595
X02785
Y0257
X0281
Y02595
X02815Y0264
X0284
Y02675
X02815
X027Y02615
X0258Y02415
Y02385
X02545
Y02415
X0251
Y02385
X0252Y0235
X02565
X02575Y0211
Y02085
Y0206
Y02035
X02525Y02055
Y0208
X02505Y02065
Y0204
X0239Y021
X0237Y0208
Y0212
X0229Y0211
Y0208
X02255
Y0211
X0213Y02115
X021
Y02075
X0213
X0205Y0207
X0202
Y02115
X0205
X023455Y022795
X02735Y02115
X0276
Y0208
X02735
Y02035
Y0201
X0276
Y02035
X02785
Y0201
X0281
Y02035
X02815Y0208
X0284
Y02115
X02815
X027Y02055
T01
X-001Y00225
X02975
X-001Y031
X02975
M30
