G04 Layer_Physical_Order=4*
G04 Layer_Color=16711680*
%FSLAX25Y25*%
%MOIN*%
G70*
G01*
G75*
%ADD12R,0.04724X0.07874*%
%ADD19C,0.01500*%
%ADD20R,0.05500X0.08500*%
%ADD23R,0.06000X0.09500*%
%ADD26C,0.07874*%
%ADD27C,0.02400*%
%ADD31R,0.10000X0.09500*%
%ADD32R,0.10500X0.05500*%
%ADD33R,0.03000X0.06000*%
%ADD34R,0.05421X0.08000*%
%ADD35R,0.05421X0.08500*%
%ADD36R,0.06000X0.08000*%
%ADD37R,0.06295X0.09000*%
%ADD38R,0.06295X0.09500*%
%ADD39R,0.06000X0.09000*%
G36*
X267357Y326061D02*
X267230Y326016D01*
X267118Y325941D01*
X267020Y325836D01*
X266937Y325701D01*
X266870Y325536D01*
X266817Y325341D01*
X266780Y325116D01*
X266757Y324861D01*
X266750Y324576D01*
X265250D01*
X265244Y324861D01*
X265196Y325341D01*
X265154Y325536D01*
X265100Y325701D01*
X265034Y325836D01*
X264956Y325941D01*
X264866Y326016D01*
X264765Y326061D01*
X264651Y326076D01*
X267500D01*
X267357Y326061D01*
D02*
G37*
G36*
X244483D02*
X244356Y326016D01*
X244244Y325941D01*
X244146Y325836D01*
X244063Y325701D01*
X243996Y325536D01*
X243944Y325341D01*
X243906Y325116D01*
X243883Y324861D01*
X243876Y324576D01*
X242376D01*
X242369Y324861D01*
X242346Y325116D01*
X242308Y325341D01*
X242256Y325536D01*
X242189Y325701D01*
X242106Y325836D01*
X242008Y325941D01*
X241896Y326016D01*
X241769Y326061D01*
X241626Y326076D01*
X244626D01*
X244483Y326061D01*
D02*
G37*
G36*
X220483D02*
X220356Y326016D01*
X220244Y325941D01*
X220146Y325836D01*
X220063Y325701D01*
X219996Y325536D01*
X219943Y325341D01*
X219906Y325116D01*
X219883Y324861D01*
X219876Y324576D01*
X218376D01*
X218369Y324861D01*
X218346Y325116D01*
X218308Y325341D01*
X218256Y325536D01*
X218189Y325701D01*
X218106Y325836D01*
X218008Y325941D01*
X217896Y326016D01*
X217769Y326061D01*
X217626Y326076D01*
X220626D01*
X220483Y326061D01*
D02*
G37*
G36*
X196484D02*
X196356Y326016D01*
X196244Y325941D01*
X196146Y325836D01*
X196063Y325701D01*
X195996Y325536D01*
X195943Y325341D01*
X195906Y325116D01*
X195884Y324861D01*
X195876Y324576D01*
X194376D01*
X194369Y324861D01*
X194346Y325116D01*
X194308Y325341D01*
X194256Y325536D01*
X194188Y325701D01*
X194106Y325836D01*
X194009Y325941D01*
X193896Y326016D01*
X193769Y326061D01*
X193626Y326076D01*
X196626D01*
X196484Y326061D01*
D02*
G37*
G36*
X172779D02*
X172651Y326016D01*
X172539Y325941D01*
X172441Y325836D01*
X172359Y325701D01*
X172291Y325536D01*
X172239Y325341D01*
X172201Y325116D01*
X172179Y324861D01*
X172171Y324576D01*
X170671D01*
X170664Y324861D01*
X170641Y325116D01*
X170604Y325341D01*
X170551Y325536D01*
X170484Y325701D01*
X170401Y325836D01*
X170304Y325941D01*
X170191Y326016D01*
X170064Y326061D01*
X169921Y326076D01*
X172921D01*
X172779Y326061D01*
D02*
G37*
G36*
X148779D02*
X148651Y326016D01*
X148539Y325941D01*
X148441Y325836D01*
X148359Y325701D01*
X148291Y325536D01*
X148239Y325341D01*
X148201Y325116D01*
X148179Y324861D01*
X148171Y324576D01*
X146671D01*
X146664Y324861D01*
X146641Y325116D01*
X146604Y325341D01*
X146551Y325536D01*
X146484Y325701D01*
X146401Y325836D01*
X146304Y325941D01*
X146191Y326016D01*
X146064Y326061D01*
X145921Y326076D01*
X148921D01*
X148779Y326061D01*
D02*
G37*
G36*
X123857D02*
X123730Y326016D01*
X123617Y325941D01*
X123520Y325836D01*
X123438Y325701D01*
X123370Y325536D01*
X123318Y325341D01*
X123280Y325116D01*
X123258Y324861D01*
X123250Y324576D01*
X121750D01*
X121744Y324861D01*
X121696Y325341D01*
X121654Y325536D01*
X121600Y325701D01*
X121534Y325836D01*
X121456Y325941D01*
X121367Y326016D01*
X121265Y326061D01*
X121151Y326076D01*
X124000D01*
X123857Y326061D01*
D02*
G37*
G36*
X100984D02*
X100856Y326016D01*
X100743Y325941D01*
X100646Y325836D01*
X100564Y325701D01*
X100496Y325536D01*
X100443Y325341D01*
X100406Y325116D01*
X100383Y324861D01*
X100376Y324576D01*
X98876D01*
X98869Y324861D01*
X98846Y325116D01*
X98808Y325341D01*
X98756Y325536D01*
X98689Y325701D01*
X98606Y325836D01*
X98509Y325941D01*
X98396Y326016D01*
X98269Y326061D01*
X98126Y326076D01*
X101126D01*
X100984Y326061D01*
D02*
G37*
G36*
X76983D02*
X76856Y326016D01*
X76744Y325941D01*
X76646Y325836D01*
X76564Y325701D01*
X76496Y325536D01*
X76443Y325341D01*
X76406Y325116D01*
X76384Y324861D01*
X76376Y324576D01*
X74876D01*
X74869Y324861D01*
X74846Y325116D01*
X74809Y325341D01*
X74756Y325536D01*
X74689Y325701D01*
X74606Y325836D01*
X74509Y325941D01*
X74396Y326016D01*
X74269Y326061D01*
X74126Y326076D01*
X77126D01*
X76983Y326061D01*
D02*
G37*
G36*
X52983D02*
X52856Y326016D01*
X52744Y325941D01*
X52646Y325836D01*
X52564Y325701D01*
X52496Y325536D01*
X52443Y325341D01*
X52406Y325116D01*
X52384Y324861D01*
X52376Y324576D01*
X50876D01*
X50868Y324861D01*
X50846Y325116D01*
X50809Y325341D01*
X50756Y325536D01*
X50688Y325701D01*
X50606Y325836D01*
X50508Y325941D01*
X50396Y326016D01*
X50269Y326061D01*
X50126Y326076D01*
X53126D01*
X52983Y326061D01*
D02*
G37*
G36*
X29279D02*
X29151Y326016D01*
X29039Y325941D01*
X28941Y325836D01*
X28859Y325701D01*
X28791Y325536D01*
X28739Y325341D01*
X28701Y325116D01*
X28679Y324861D01*
X28671Y324576D01*
X27171D01*
X27164Y324861D01*
X27141Y325116D01*
X27104Y325341D01*
X27051Y325536D01*
X26984Y325701D01*
X26901Y325836D01*
X26804Y325941D01*
X26691Y326016D01*
X26564Y326061D01*
X26421Y326076D01*
X29421D01*
X29279Y326061D01*
D02*
G37*
G36*
X5279D02*
X5151Y326016D01*
X5039Y325941D01*
X4941Y325836D01*
X4859Y325701D01*
X4791Y325536D01*
X4739Y325341D01*
X4701Y325116D01*
X4679Y324861D01*
X4671Y324576D01*
X3171D01*
X3164Y324861D01*
X3141Y325116D01*
X3104Y325341D01*
X3051Y325536D01*
X2984Y325701D01*
X2901Y325836D01*
X2804Y325941D01*
X2691Y326016D01*
X2564Y326061D01*
X2421Y326076D01*
X5421D01*
X5279Y326061D01*
D02*
G37*
G36*
X195887Y320141D02*
X195918Y319854D01*
X195971Y319576D01*
X196046Y319307D01*
X196141Y319046D01*
X196258Y318795D01*
X196396Y318552D01*
X196555Y318318D01*
X196735Y318092D01*
X196937Y317876D01*
X196187Y316505D01*
X195975Y316696D01*
X195762Y316844D01*
X195550Y316950D01*
X195338Y317014D01*
X195126Y317035D01*
X194914Y317014D01*
X194702Y316950D01*
X194490Y316844D01*
X194277Y316696D01*
X194065Y316505D01*
X193315Y317876D01*
X193517Y318092D01*
X193697Y318318D01*
X193856Y318552D01*
X193994Y318795D01*
X194111Y319046D01*
X194206Y319307D01*
X194281Y319576D01*
X194334Y319854D01*
X194365Y320141D01*
X194376Y320437D01*
X195876D01*
X195887Y320141D01*
D02*
G37*
G36*
X52387D02*
X52418Y319854D01*
X52471Y319576D01*
X52546Y319307D01*
X52641Y319046D01*
X52758Y318795D01*
X52896Y318552D01*
X53055Y318318D01*
X53235Y318092D01*
X53437Y317876D01*
X52687Y316505D01*
X52474Y316696D01*
X52262Y316844D01*
X52050Y316950D01*
X51838Y317014D01*
X51626Y317035D01*
X51414Y317014D01*
X51202Y316950D01*
X50990Y316844D01*
X50777Y316696D01*
X50565Y316505D01*
X49815Y317876D01*
X50017Y318092D01*
X50197Y318318D01*
X50356Y318552D01*
X50494Y318795D01*
X50611Y319046D01*
X50706Y319307D01*
X50780Y319576D01*
X50834Y319854D01*
X50865Y320141D01*
X50876Y320437D01*
X52376D01*
X52387Y320141D01*
D02*
G37*
G36*
X270823Y316619D02*
X270808Y316583D01*
X270794Y316534D01*
X270782Y316473D01*
X270773Y316399D01*
X270758Y316214D01*
X270750Y315843D01*
X269250D01*
X269249Y315979D01*
X269218Y316473D01*
X269206Y316534D01*
X269192Y316583D01*
X269177Y316619D01*
X269160Y316643D01*
X270840D01*
X270823Y316619D01*
D02*
G37*
G36*
X127323D02*
X127308Y316583D01*
X127294Y316534D01*
X127282Y316473D01*
X127272Y316399D01*
X127258Y316214D01*
X127250Y315843D01*
X125750D01*
X125749Y315979D01*
X125718Y316473D01*
X125706Y316534D01*
X125692Y316583D01*
X125677Y316619D01*
X125660Y316643D01*
X127340D01*
X127323Y316619D01*
D02*
G37*
G36*
X254000Y314500D02*
X248500D01*
Y327000D01*
X254000D01*
Y314500D01*
D02*
G37*
G36*
X110500D02*
X105000D01*
Y327000D01*
X110500D01*
Y314500D01*
D02*
G37*
G36*
X261500Y314000D02*
X256000Y314000D01*
X256000Y327500D01*
X261500D01*
X261500Y314000D01*
D02*
G37*
G36*
X118000D02*
X112500Y314000D01*
X112500Y327500D01*
X118000D01*
X118000Y314000D01*
D02*
G37*
G36*
X156268Y311518D02*
X156074Y311503D01*
X155901Y311458D01*
X155749Y311383D01*
X155616Y311278D01*
X155504Y311143D01*
X155413Y310978D01*
X155342Y310783D01*
X155291Y310558D01*
X155260Y310303D01*
X155250Y310018D01*
X153750D01*
X153735Y310303D01*
X153690Y310558D01*
X153615Y310783D01*
X153510Y310978D01*
X153375Y311143D01*
X153210Y311278D01*
X153015Y311383D01*
X152790Y311458D01*
X152535Y311503D01*
X152250Y311518D01*
X154500Y313018D01*
X156268Y311518D01*
D02*
G37*
G36*
X12768D02*
X12574Y311503D01*
X12401Y311458D01*
X12249Y311383D01*
X12116Y311278D01*
X12004Y311143D01*
X11913Y310978D01*
X11842Y310783D01*
X11791Y310558D01*
X11760Y310303D01*
X11750Y310018D01*
X10250D01*
X10235Y310303D01*
X10190Y310558D01*
X10115Y310783D01*
X10010Y310978D01*
X9875Y311143D01*
X9710Y311278D01*
X9515Y311383D01*
X9290Y311458D01*
X9035Y311503D01*
X8750Y311518D01*
X11000Y313018D01*
X12768Y311518D01*
D02*
G37*
G36*
X165251Y307021D02*
X165282Y306527D01*
X165294Y306466D01*
X165308Y306417D01*
X165323Y306381D01*
X165340Y306357D01*
X163660D01*
X163677Y306381D01*
X163692Y306417D01*
X163706Y306466D01*
X163718Y306527D01*
X163727Y306601D01*
X163742Y306786D01*
X163750Y307157D01*
X165250D01*
X165251Y307021D01*
D02*
G37*
G36*
X160251D02*
X160282Y306527D01*
X160294Y306466D01*
X160308Y306417D01*
X160323Y306381D01*
X160340Y306357D01*
X158660D01*
X158677Y306381D01*
X158692Y306417D01*
X158706Y306466D01*
X158718Y306527D01*
X158728Y306601D01*
X158742Y306786D01*
X158750Y307157D01*
X160250D01*
X160251Y307021D01*
D02*
G37*
G36*
X155251D02*
X155282Y306527D01*
X155294Y306466D01*
X155308Y306417D01*
X155323Y306381D01*
X155340Y306357D01*
X153660D01*
X153677Y306381D01*
X153692Y306417D01*
X153706Y306466D01*
X153718Y306527D01*
X153727Y306601D01*
X153742Y306786D01*
X153750Y307157D01*
X155250D01*
X155251Y307021D01*
D02*
G37*
G36*
X21751D02*
X21782Y306527D01*
X21794Y306466D01*
X21808Y306417D01*
X21823Y306381D01*
X21840Y306357D01*
X20160D01*
X20177Y306381D01*
X20192Y306417D01*
X20206Y306466D01*
X20218Y306527D01*
X20227Y306601D01*
X20242Y306786D01*
X20250Y307157D01*
X21750D01*
X21751Y307021D01*
D02*
G37*
G36*
X16751D02*
X16782Y306527D01*
X16794Y306466D01*
X16808Y306417D01*
X16823Y306381D01*
X16840Y306357D01*
X15160D01*
X15177Y306381D01*
X15192Y306417D01*
X15206Y306466D01*
X15218Y306527D01*
X15227Y306601D01*
X15242Y306786D01*
X15250Y307157D01*
X16750D01*
X16751Y307021D01*
D02*
G37*
G36*
X11751D02*
X11782Y306527D01*
X11794Y306466D01*
X11808Y306417D01*
X11823Y306381D01*
X11840Y306357D01*
X10160D01*
X10177Y306381D01*
X10192Y306417D01*
X10206Y306466D01*
X10218Y306527D01*
X10227Y306601D01*
X10242Y306786D01*
X10250Y307157D01*
X11750D01*
X11751Y307021D01*
D02*
G37*
G36*
X171202Y306141D02*
X171106Y306044D01*
X170780Y305673D01*
X170745Y305622D01*
X170720Y305577D01*
X170705Y305541D01*
X170700Y305512D01*
X169512Y306700D01*
X169541Y306705D01*
X169578Y306720D01*
X169622Y306745D01*
X169673Y306780D01*
X169732Y306825D01*
X169873Y306945D01*
X170141Y307202D01*
X171202Y306141D01*
D02*
G37*
G36*
X27702D02*
X27606Y306044D01*
X27280Y305673D01*
X27245Y305622D01*
X27220Y305577D01*
X27205Y305541D01*
X27200Y305512D01*
X26012Y306700D01*
X26041Y306705D01*
X26077Y306720D01*
X26122Y306745D01*
X26173Y306780D01*
X26232Y306825D01*
X26373Y306945D01*
X26641Y307202D01*
X27702Y306141D01*
D02*
G37*
G36*
X195572Y306011D02*
X195476Y305914D01*
X195150Y305543D01*
X195115Y305492D01*
X195090Y305448D01*
X195075Y305411D01*
X195070Y305382D01*
X193882Y306570D01*
X193911Y306575D01*
X193948Y306590D01*
X193992Y306615D01*
X194043Y306650D01*
X194102Y306695D01*
X194243Y306815D01*
X194511Y307072D01*
X195572Y306011D01*
D02*
G37*
G36*
X52072D02*
X51976Y305914D01*
X51650Y305543D01*
X51615Y305492D01*
X51590Y305448D01*
X51575Y305411D01*
X51570Y305382D01*
X50382Y306570D01*
X50411Y306575D01*
X50448Y306590D01*
X50492Y306615D01*
X50543Y306650D01*
X50602Y306695D01*
X50743Y306815D01*
X51011Y307072D01*
X52072Y306011D01*
D02*
G37*
G36*
X267357Y270061D02*
X267230Y270016D01*
X267118Y269941D01*
X267020Y269836D01*
X266937Y269701D01*
X266870Y269536D01*
X266817Y269341D01*
X266780Y269116D01*
X266757Y268861D01*
X266750Y268576D01*
X265250D01*
X265244Y268861D01*
X265196Y269341D01*
X265154Y269536D01*
X265100Y269701D01*
X265034Y269836D01*
X264956Y269941D01*
X264866Y270016D01*
X264765Y270061D01*
X264651Y270076D01*
X267500D01*
X267357Y270061D01*
D02*
G37*
G36*
X244483D02*
X244356Y270016D01*
X244244Y269941D01*
X244146Y269836D01*
X244063Y269701D01*
X243996Y269536D01*
X243944Y269341D01*
X243906Y269116D01*
X243883Y268861D01*
X243876Y268576D01*
X242376D01*
X242369Y268861D01*
X242346Y269116D01*
X242308Y269341D01*
X242256Y269536D01*
X242189Y269701D01*
X242106Y269836D01*
X242008Y269941D01*
X241896Y270016D01*
X241769Y270061D01*
X241626Y270076D01*
X244626D01*
X244483Y270061D01*
D02*
G37*
G36*
X220483D02*
X220356Y270016D01*
X220244Y269941D01*
X220146Y269836D01*
X220063Y269701D01*
X219996Y269536D01*
X219943Y269341D01*
X219906Y269116D01*
X219883Y268861D01*
X219876Y268576D01*
X218376D01*
X218369Y268861D01*
X218346Y269116D01*
X218308Y269341D01*
X218256Y269536D01*
X218189Y269701D01*
X218106Y269836D01*
X218008Y269941D01*
X217896Y270016D01*
X217769Y270061D01*
X217626Y270076D01*
X220626D01*
X220483Y270061D01*
D02*
G37*
G36*
X196484D02*
X196356Y270016D01*
X196244Y269941D01*
X196146Y269836D01*
X196063Y269701D01*
X195996Y269536D01*
X195943Y269341D01*
X195906Y269116D01*
X195884Y268861D01*
X195876Y268576D01*
X194376D01*
X194369Y268861D01*
X194346Y269116D01*
X194308Y269341D01*
X194256Y269536D01*
X194188Y269701D01*
X194106Y269836D01*
X194009Y269941D01*
X193896Y270016D01*
X193769Y270061D01*
X193626Y270076D01*
X196626D01*
X196484Y270061D01*
D02*
G37*
G36*
X172779D02*
X172651Y270016D01*
X172539Y269941D01*
X172441Y269836D01*
X172359Y269701D01*
X172291Y269536D01*
X172239Y269341D01*
X172201Y269116D01*
X172179Y268861D01*
X172171Y268576D01*
X170671D01*
X170664Y268861D01*
X170641Y269116D01*
X170604Y269341D01*
X170551Y269536D01*
X170484Y269701D01*
X170401Y269836D01*
X170304Y269941D01*
X170191Y270016D01*
X170064Y270061D01*
X169921Y270076D01*
X172921D01*
X172779Y270061D01*
D02*
G37*
G36*
X148779D02*
X148651Y270016D01*
X148539Y269941D01*
X148441Y269836D01*
X148359Y269701D01*
X148291Y269536D01*
X148239Y269341D01*
X148201Y269116D01*
X148179Y268861D01*
X148171Y268576D01*
X146671D01*
X146664Y268861D01*
X146641Y269116D01*
X146604Y269341D01*
X146551Y269536D01*
X146484Y269701D01*
X146401Y269836D01*
X146304Y269941D01*
X146191Y270016D01*
X146064Y270061D01*
X145921Y270076D01*
X148921D01*
X148779Y270061D01*
D02*
G37*
G36*
X123857D02*
X123730Y270016D01*
X123617Y269941D01*
X123520Y269836D01*
X123438Y269701D01*
X123370Y269536D01*
X123318Y269341D01*
X123280Y269116D01*
X123258Y268861D01*
X123250Y268576D01*
X121750D01*
X121744Y268861D01*
X121696Y269341D01*
X121654Y269536D01*
X121600Y269701D01*
X121534Y269836D01*
X121456Y269941D01*
X121367Y270016D01*
X121265Y270061D01*
X121151Y270076D01*
X124000D01*
X123857Y270061D01*
D02*
G37*
G36*
X100984D02*
X100856Y270016D01*
X100743Y269941D01*
X100646Y269836D01*
X100564Y269701D01*
X100496Y269536D01*
X100443Y269341D01*
X100406Y269116D01*
X100383Y268861D01*
X100376Y268576D01*
X98876D01*
X98869Y268861D01*
X98846Y269116D01*
X98808Y269341D01*
X98756Y269536D01*
X98689Y269701D01*
X98606Y269836D01*
X98509Y269941D01*
X98396Y270016D01*
X98269Y270061D01*
X98126Y270076D01*
X101126D01*
X100984Y270061D01*
D02*
G37*
G36*
X76983D02*
X76856Y270016D01*
X76744Y269941D01*
X76646Y269836D01*
X76564Y269701D01*
X76496Y269536D01*
X76443Y269341D01*
X76406Y269116D01*
X76384Y268861D01*
X76376Y268576D01*
X74876D01*
X74869Y268861D01*
X74846Y269116D01*
X74809Y269341D01*
X74756Y269536D01*
X74689Y269701D01*
X74606Y269836D01*
X74509Y269941D01*
X74396Y270016D01*
X74269Y270061D01*
X74126Y270076D01*
X77126D01*
X76983Y270061D01*
D02*
G37*
G36*
X52983D02*
X52856Y270016D01*
X52744Y269941D01*
X52646Y269836D01*
X52564Y269701D01*
X52496Y269536D01*
X52443Y269341D01*
X52406Y269116D01*
X52384Y268861D01*
X52376Y268576D01*
X50876D01*
X50868Y268861D01*
X50846Y269116D01*
X50809Y269341D01*
X50756Y269536D01*
X50688Y269701D01*
X50606Y269836D01*
X50508Y269941D01*
X50396Y270016D01*
X50269Y270061D01*
X50126Y270076D01*
X53126D01*
X52983Y270061D01*
D02*
G37*
G36*
X29279D02*
X29151Y270016D01*
X29039Y269941D01*
X28941Y269836D01*
X28859Y269701D01*
X28791Y269536D01*
X28739Y269341D01*
X28701Y269116D01*
X28679Y268861D01*
X28671Y268576D01*
X27171D01*
X27164Y268861D01*
X27141Y269116D01*
X27104Y269341D01*
X27051Y269536D01*
X26984Y269701D01*
X26901Y269836D01*
X26804Y269941D01*
X26691Y270016D01*
X26564Y270061D01*
X26421Y270076D01*
X29421D01*
X29279Y270061D01*
D02*
G37*
G36*
X5279D02*
X5151Y270016D01*
X5039Y269941D01*
X4941Y269836D01*
X4859Y269701D01*
X4791Y269536D01*
X4739Y269341D01*
X4701Y269116D01*
X4679Y268861D01*
X4671Y268576D01*
X3171D01*
X3164Y268861D01*
X3141Y269116D01*
X3104Y269341D01*
X3051Y269536D01*
X2984Y269701D01*
X2901Y269836D01*
X2804Y269941D01*
X2691Y270016D01*
X2564Y270061D01*
X2421Y270076D01*
X5421D01*
X5279Y270061D01*
D02*
G37*
G36*
X195887Y264141D02*
X195918Y263854D01*
X195971Y263576D01*
X196046Y263307D01*
X196141Y263047D01*
X196258Y262795D01*
X196396Y262552D01*
X196555Y262318D01*
X196735Y262092D01*
X196937Y261876D01*
X196187Y260505D01*
X195975Y260696D01*
X195762Y260844D01*
X195550Y260950D01*
X195338Y261014D01*
X195126Y261035D01*
X194914Y261014D01*
X194702Y260950D01*
X194490Y260844D01*
X194277Y260696D01*
X194065Y260505D01*
X193315Y261876D01*
X193517Y262092D01*
X193697Y262318D01*
X193856Y262552D01*
X193994Y262795D01*
X194111Y263047D01*
X194206Y263307D01*
X194281Y263576D01*
X194334Y263854D01*
X194365Y264141D01*
X194376Y264437D01*
X195876D01*
X195887Y264141D01*
D02*
G37*
G36*
X52387D02*
X52418Y263854D01*
X52471Y263576D01*
X52546Y263307D01*
X52641Y263047D01*
X52758Y262795D01*
X52896Y262552D01*
X53055Y262318D01*
X53235Y262092D01*
X53437Y261876D01*
X52687Y260505D01*
X52474Y260696D01*
X52262Y260844D01*
X52050Y260950D01*
X51838Y261014D01*
X51626Y261035D01*
X51414Y261014D01*
X51202Y260950D01*
X50990Y260844D01*
X50777Y260696D01*
X50565Y260505D01*
X49815Y261876D01*
X50017Y262092D01*
X50197Y262318D01*
X50356Y262552D01*
X50494Y262795D01*
X50611Y263047D01*
X50706Y263307D01*
X50780Y263576D01*
X50834Y263854D01*
X50865Y264141D01*
X50876Y264437D01*
X52376D01*
X52387Y264141D01*
D02*
G37*
G36*
X270823Y260619D02*
X270808Y260583D01*
X270794Y260534D01*
X270782Y260473D01*
X270773Y260399D01*
X270758Y260214D01*
X270750Y259843D01*
X269250D01*
X269249Y259979D01*
X269218Y260473D01*
X269206Y260534D01*
X269192Y260583D01*
X269177Y260619D01*
X269160Y260643D01*
X270840D01*
X270823Y260619D01*
D02*
G37*
G36*
X127323D02*
X127308Y260583D01*
X127294Y260534D01*
X127282Y260473D01*
X127272Y260399D01*
X127258Y260214D01*
X127250Y259843D01*
X125750D01*
X125749Y259979D01*
X125718Y260473D01*
X125706Y260534D01*
X125692Y260583D01*
X125677Y260619D01*
X125660Y260643D01*
X127340D01*
X127323Y260619D01*
D02*
G37*
G36*
X254000Y258500D02*
X248500D01*
Y271000D01*
X254000D01*
Y258500D01*
D02*
G37*
G36*
X110500D02*
X105000D01*
Y271000D01*
X110500D01*
Y258500D01*
D02*
G37*
G36*
X261500Y258000D02*
X256000Y258000D01*
X256000Y271500D01*
X261500D01*
X261500Y258000D01*
D02*
G37*
G36*
X118000D02*
X112500Y258000D01*
X112500Y271500D01*
X118000D01*
X118000Y258000D01*
D02*
G37*
G36*
X156268Y255518D02*
X156074Y255503D01*
X155901Y255458D01*
X155749Y255383D01*
X155616Y255278D01*
X155504Y255143D01*
X155413Y254978D01*
X155342Y254783D01*
X155291Y254558D01*
X155260Y254303D01*
X155250Y254018D01*
X153750D01*
X153735Y254303D01*
X153690Y254558D01*
X153615Y254783D01*
X153510Y254978D01*
X153375Y255143D01*
X153210Y255278D01*
X153015Y255383D01*
X152790Y255458D01*
X152535Y255503D01*
X152250Y255518D01*
X154500Y257018D01*
X156268Y255518D01*
D02*
G37*
G36*
X12768D02*
X12574Y255503D01*
X12401Y255458D01*
X12249Y255383D01*
X12116Y255278D01*
X12004Y255143D01*
X11913Y254978D01*
X11842Y254783D01*
X11791Y254558D01*
X11760Y254303D01*
X11750Y254018D01*
X10250D01*
X10235Y254303D01*
X10190Y254558D01*
X10115Y254783D01*
X10010Y254978D01*
X9875Y255143D01*
X9710Y255278D01*
X9515Y255383D01*
X9290Y255458D01*
X9035Y255503D01*
X8750Y255518D01*
X11000Y257018D01*
X12768Y255518D01*
D02*
G37*
G36*
X165251Y251021D02*
X165282Y250527D01*
X165294Y250466D01*
X165308Y250417D01*
X165323Y250381D01*
X165340Y250357D01*
X163660D01*
X163677Y250381D01*
X163692Y250417D01*
X163706Y250466D01*
X163718Y250527D01*
X163727Y250601D01*
X163742Y250786D01*
X163750Y251157D01*
X165250D01*
X165251Y251021D01*
D02*
G37*
G36*
X160251D02*
X160282Y250527D01*
X160294Y250466D01*
X160308Y250417D01*
X160323Y250381D01*
X160340Y250357D01*
X158660D01*
X158677Y250381D01*
X158692Y250417D01*
X158706Y250466D01*
X158718Y250527D01*
X158728Y250601D01*
X158742Y250786D01*
X158750Y251157D01*
X160250D01*
X160251Y251021D01*
D02*
G37*
G36*
X155251D02*
X155282Y250527D01*
X155294Y250466D01*
X155308Y250417D01*
X155323Y250381D01*
X155340Y250357D01*
X153660D01*
X153677Y250381D01*
X153692Y250417D01*
X153706Y250466D01*
X153718Y250527D01*
X153727Y250601D01*
X153742Y250786D01*
X153750Y251157D01*
X155250D01*
X155251Y251021D01*
D02*
G37*
G36*
X21751D02*
X21782Y250527D01*
X21794Y250466D01*
X21808Y250417D01*
X21823Y250381D01*
X21840Y250357D01*
X20160D01*
X20177Y250381D01*
X20192Y250417D01*
X20206Y250466D01*
X20218Y250527D01*
X20227Y250601D01*
X20242Y250786D01*
X20250Y251157D01*
X21750D01*
X21751Y251021D01*
D02*
G37*
G36*
X16751D02*
X16782Y250527D01*
X16794Y250466D01*
X16808Y250417D01*
X16823Y250381D01*
X16840Y250357D01*
X15160D01*
X15177Y250381D01*
X15192Y250417D01*
X15206Y250466D01*
X15218Y250527D01*
X15227Y250601D01*
X15242Y250786D01*
X15250Y251157D01*
X16750D01*
X16751Y251021D01*
D02*
G37*
G36*
X11751D02*
X11782Y250527D01*
X11794Y250466D01*
X11808Y250417D01*
X11823Y250381D01*
X11840Y250357D01*
X10160D01*
X10177Y250381D01*
X10192Y250417D01*
X10206Y250466D01*
X10218Y250527D01*
X10227Y250601D01*
X10242Y250786D01*
X10250Y251157D01*
X11750D01*
X11751Y251021D01*
D02*
G37*
G36*
X171202Y250141D02*
X171106Y250044D01*
X170780Y249673D01*
X170745Y249622D01*
X170720Y249577D01*
X170705Y249541D01*
X170700Y249512D01*
X169512Y250700D01*
X169541Y250705D01*
X169578Y250720D01*
X169622Y250745D01*
X169673Y250780D01*
X169732Y250825D01*
X169873Y250945D01*
X170141Y251202D01*
X171202Y250141D01*
D02*
G37*
G36*
X27702D02*
X27606Y250044D01*
X27280Y249673D01*
X27245Y249622D01*
X27220Y249577D01*
X27205Y249541D01*
X27200Y249512D01*
X26012Y250700D01*
X26041Y250705D01*
X26077Y250720D01*
X26122Y250745D01*
X26173Y250780D01*
X26232Y250825D01*
X26373Y250945D01*
X26641Y251202D01*
X27702Y250141D01*
D02*
G37*
G36*
X195572Y250011D02*
X195476Y249914D01*
X195150Y249543D01*
X195115Y249492D01*
X195090Y249448D01*
X195075Y249411D01*
X195070Y249382D01*
X193882Y250570D01*
X193911Y250575D01*
X193948Y250590D01*
X193992Y250615D01*
X194043Y250650D01*
X194102Y250695D01*
X194243Y250815D01*
X194511Y251072D01*
X195572Y250011D01*
D02*
G37*
G36*
X52072D02*
X51976Y249914D01*
X51650Y249543D01*
X51615Y249492D01*
X51590Y249448D01*
X51575Y249411D01*
X51570Y249382D01*
X50382Y250570D01*
X50411Y250575D01*
X50448Y250590D01*
X50492Y250615D01*
X50543Y250650D01*
X50602Y250695D01*
X50743Y250815D01*
X51011Y251072D01*
X52072Y250011D01*
D02*
G37*
G36*
X267357Y214061D02*
X267230Y214016D01*
X267118Y213941D01*
X267020Y213836D01*
X266937Y213701D01*
X266870Y213536D01*
X266817Y213341D01*
X266780Y213116D01*
X266757Y212861D01*
X266750Y212576D01*
X265250D01*
X265244Y212861D01*
X265196Y213341D01*
X265154Y213536D01*
X265100Y213701D01*
X265034Y213836D01*
X264956Y213941D01*
X264866Y214016D01*
X264765Y214061D01*
X264651Y214076D01*
X267500D01*
X267357Y214061D01*
D02*
G37*
G36*
X244483D02*
X244356Y214016D01*
X244244Y213941D01*
X244146Y213836D01*
X244063Y213701D01*
X243996Y213536D01*
X243944Y213341D01*
X243906Y213116D01*
X243883Y212861D01*
X243876Y212576D01*
X242376D01*
X242369Y212861D01*
X242346Y213116D01*
X242308Y213341D01*
X242256Y213536D01*
X242189Y213701D01*
X242106Y213836D01*
X242008Y213941D01*
X241896Y214016D01*
X241769Y214061D01*
X241626Y214076D01*
X244626D01*
X244483Y214061D01*
D02*
G37*
G36*
X220483D02*
X220356Y214016D01*
X220244Y213941D01*
X220146Y213836D01*
X220063Y213701D01*
X219996Y213536D01*
X219943Y213341D01*
X219906Y213116D01*
X219883Y212861D01*
X219876Y212576D01*
X218376D01*
X218369Y212861D01*
X218346Y213116D01*
X218308Y213341D01*
X218256Y213536D01*
X218189Y213701D01*
X218106Y213836D01*
X218008Y213941D01*
X217896Y214016D01*
X217769Y214061D01*
X217626Y214076D01*
X220626D01*
X220483Y214061D01*
D02*
G37*
G36*
X196484D02*
X196356Y214016D01*
X196244Y213941D01*
X196146Y213836D01*
X196063Y213701D01*
X195996Y213536D01*
X195943Y213341D01*
X195906Y213116D01*
X195884Y212861D01*
X195876Y212576D01*
X194376D01*
X194369Y212861D01*
X194346Y213116D01*
X194308Y213341D01*
X194256Y213536D01*
X194188Y213701D01*
X194106Y213836D01*
X194009Y213941D01*
X193896Y214016D01*
X193769Y214061D01*
X193626Y214076D01*
X196626D01*
X196484Y214061D01*
D02*
G37*
G36*
X172779D02*
X172651Y214016D01*
X172539Y213941D01*
X172441Y213836D01*
X172359Y213701D01*
X172291Y213536D01*
X172239Y213341D01*
X172201Y213116D01*
X172179Y212861D01*
X172171Y212576D01*
X170671D01*
X170664Y212861D01*
X170641Y213116D01*
X170604Y213341D01*
X170551Y213536D01*
X170484Y213701D01*
X170401Y213836D01*
X170304Y213941D01*
X170191Y214016D01*
X170064Y214061D01*
X169921Y214076D01*
X172921D01*
X172779Y214061D01*
D02*
G37*
G36*
X148779D02*
X148651Y214016D01*
X148539Y213941D01*
X148441Y213836D01*
X148359Y213701D01*
X148291Y213536D01*
X148239Y213341D01*
X148201Y213116D01*
X148179Y212861D01*
X148171Y212576D01*
X146671D01*
X146664Y212861D01*
X146641Y213116D01*
X146604Y213341D01*
X146551Y213536D01*
X146484Y213701D01*
X146401Y213836D01*
X146304Y213941D01*
X146191Y214016D01*
X146064Y214061D01*
X145921Y214076D01*
X148921D01*
X148779Y214061D01*
D02*
G37*
G36*
X123857D02*
X123730Y214016D01*
X123617Y213941D01*
X123520Y213836D01*
X123438Y213701D01*
X123370Y213536D01*
X123318Y213341D01*
X123280Y213116D01*
X123258Y212861D01*
X123250Y212576D01*
X121750D01*
X121744Y212861D01*
X121696Y213341D01*
X121654Y213536D01*
X121600Y213701D01*
X121534Y213836D01*
X121456Y213941D01*
X121367Y214016D01*
X121265Y214061D01*
X121151Y214076D01*
X124000D01*
X123857Y214061D01*
D02*
G37*
G36*
X100984D02*
X100856Y214016D01*
X100743Y213941D01*
X100646Y213836D01*
X100564Y213701D01*
X100496Y213536D01*
X100443Y213341D01*
X100406Y213116D01*
X100383Y212861D01*
X100376Y212576D01*
X98876D01*
X98869Y212861D01*
X98846Y213116D01*
X98808Y213341D01*
X98756Y213536D01*
X98689Y213701D01*
X98606Y213836D01*
X98509Y213941D01*
X98396Y214016D01*
X98269Y214061D01*
X98126Y214076D01*
X101126D01*
X100984Y214061D01*
D02*
G37*
G36*
X76983D02*
X76856Y214016D01*
X76744Y213941D01*
X76646Y213836D01*
X76564Y213701D01*
X76496Y213536D01*
X76443Y213341D01*
X76406Y213116D01*
X76384Y212861D01*
X76376Y212576D01*
X74876D01*
X74869Y212861D01*
X74846Y213116D01*
X74809Y213341D01*
X74756Y213536D01*
X74689Y213701D01*
X74606Y213836D01*
X74509Y213941D01*
X74396Y214016D01*
X74269Y214061D01*
X74126Y214076D01*
X77126D01*
X76983Y214061D01*
D02*
G37*
G36*
X52983D02*
X52856Y214016D01*
X52744Y213941D01*
X52646Y213836D01*
X52564Y213701D01*
X52496Y213536D01*
X52443Y213341D01*
X52406Y213116D01*
X52384Y212861D01*
X52376Y212576D01*
X50876D01*
X50868Y212861D01*
X50846Y213116D01*
X50809Y213341D01*
X50756Y213536D01*
X50688Y213701D01*
X50606Y213836D01*
X50508Y213941D01*
X50396Y214016D01*
X50269Y214061D01*
X50126Y214076D01*
X53126D01*
X52983Y214061D01*
D02*
G37*
G36*
X29279D02*
X29151Y214016D01*
X29039Y213941D01*
X28941Y213836D01*
X28859Y213701D01*
X28791Y213536D01*
X28739Y213341D01*
X28701Y213116D01*
X28679Y212861D01*
X28671Y212576D01*
X27171D01*
X27164Y212861D01*
X27141Y213116D01*
X27104Y213341D01*
X27051Y213536D01*
X26984Y213701D01*
X26901Y213836D01*
X26804Y213941D01*
X26691Y214016D01*
X26564Y214061D01*
X26421Y214076D01*
X29421D01*
X29279Y214061D01*
D02*
G37*
G36*
X5279D02*
X5151Y214016D01*
X5039Y213941D01*
X4941Y213836D01*
X4859Y213701D01*
X4791Y213536D01*
X4739Y213341D01*
X4701Y213116D01*
X4679Y212861D01*
X4671Y212576D01*
X3171D01*
X3164Y212861D01*
X3141Y213116D01*
X3104Y213341D01*
X3051Y213536D01*
X2984Y213701D01*
X2901Y213836D01*
X2804Y213941D01*
X2691Y214016D01*
X2564Y214061D01*
X2421Y214076D01*
X5421D01*
X5279Y214061D01*
D02*
G37*
G36*
X195887Y208141D02*
X195918Y207854D01*
X195971Y207576D01*
X196046Y207307D01*
X196141Y207047D01*
X196258Y206795D01*
X196396Y206552D01*
X196555Y206318D01*
X196735Y206093D01*
X196937Y205876D01*
X196187Y204505D01*
X195975Y204696D01*
X195762Y204844D01*
X195550Y204950D01*
X195338Y205014D01*
X195126Y205035D01*
X194914Y205014D01*
X194702Y204950D01*
X194490Y204844D01*
X194277Y204696D01*
X194065Y204505D01*
X193315Y205876D01*
X193517Y206093D01*
X193697Y206318D01*
X193856Y206552D01*
X193994Y206795D01*
X194111Y207047D01*
X194206Y207307D01*
X194281Y207576D01*
X194334Y207854D01*
X194365Y208141D01*
X194376Y208437D01*
X195876D01*
X195887Y208141D01*
D02*
G37*
G36*
X52387D02*
X52418Y207854D01*
X52471Y207576D01*
X52546Y207307D01*
X52641Y207047D01*
X52758Y206795D01*
X52896Y206552D01*
X53055Y206318D01*
X53235Y206093D01*
X53437Y205876D01*
X52687Y204505D01*
X52474Y204696D01*
X52262Y204844D01*
X52050Y204950D01*
X51838Y205014D01*
X51626Y205035D01*
X51414Y205014D01*
X51202Y204950D01*
X50990Y204844D01*
X50777Y204696D01*
X50565Y204505D01*
X49815Y205876D01*
X50017Y206093D01*
X50197Y206318D01*
X50356Y206552D01*
X50494Y206795D01*
X50611Y207047D01*
X50706Y207307D01*
X50780Y207576D01*
X50834Y207854D01*
X50865Y208141D01*
X50876Y208437D01*
X52376D01*
X52387Y208141D01*
D02*
G37*
G36*
X270823Y204619D02*
X270808Y204583D01*
X270794Y204534D01*
X270782Y204473D01*
X270773Y204399D01*
X270758Y204214D01*
X270750Y203843D01*
X269250D01*
X269249Y203979D01*
X269218Y204473D01*
X269206Y204534D01*
X269192Y204583D01*
X269177Y204619D01*
X269160Y204643D01*
X270840D01*
X270823Y204619D01*
D02*
G37*
G36*
X127323D02*
X127308Y204583D01*
X127294Y204534D01*
X127282Y204473D01*
X127272Y204399D01*
X127258Y204214D01*
X127250Y203843D01*
X125750D01*
X125749Y203979D01*
X125718Y204473D01*
X125706Y204534D01*
X125692Y204583D01*
X125677Y204619D01*
X125660Y204643D01*
X127340D01*
X127323Y204619D01*
D02*
G37*
G36*
X254000Y202500D02*
X248500D01*
Y215000D01*
X254000D01*
Y202500D01*
D02*
G37*
G36*
X110500D02*
X105000D01*
Y215000D01*
X110500D01*
Y202500D01*
D02*
G37*
G36*
X261500Y202000D02*
X256000Y202000D01*
X256000Y215500D01*
X261500D01*
X261500Y202000D01*
D02*
G37*
G36*
X118000D02*
X112500Y202000D01*
X112500Y215500D01*
X118000D01*
X118000Y202000D01*
D02*
G37*
G36*
X156268Y199518D02*
X156074Y199503D01*
X155901Y199458D01*
X155749Y199383D01*
X155616Y199278D01*
X155504Y199143D01*
X155413Y198978D01*
X155342Y198783D01*
X155291Y198558D01*
X155260Y198303D01*
X155250Y198018D01*
X153750D01*
X153735Y198303D01*
X153690Y198558D01*
X153615Y198783D01*
X153510Y198978D01*
X153375Y199143D01*
X153210Y199278D01*
X153015Y199383D01*
X152790Y199458D01*
X152535Y199503D01*
X152250Y199518D01*
X154500Y201018D01*
X156268Y199518D01*
D02*
G37*
G36*
X12768D02*
X12574Y199503D01*
X12401Y199458D01*
X12249Y199383D01*
X12116Y199278D01*
X12004Y199143D01*
X11913Y198978D01*
X11842Y198783D01*
X11791Y198558D01*
X11760Y198303D01*
X11750Y198018D01*
X10250D01*
X10235Y198303D01*
X10190Y198558D01*
X10115Y198783D01*
X10010Y198978D01*
X9875Y199143D01*
X9710Y199278D01*
X9515Y199383D01*
X9290Y199458D01*
X9035Y199503D01*
X8750Y199518D01*
X11000Y201018D01*
X12768Y199518D01*
D02*
G37*
G36*
X165251Y195021D02*
X165282Y194527D01*
X165294Y194466D01*
X165308Y194417D01*
X165323Y194381D01*
X165340Y194357D01*
X163660D01*
X163677Y194381D01*
X163692Y194417D01*
X163706Y194466D01*
X163718Y194527D01*
X163727Y194601D01*
X163742Y194786D01*
X163750Y195157D01*
X165250D01*
X165251Y195021D01*
D02*
G37*
G36*
X160251D02*
X160282Y194527D01*
X160294Y194466D01*
X160308Y194417D01*
X160323Y194381D01*
X160340Y194357D01*
X158660D01*
X158677Y194381D01*
X158692Y194417D01*
X158706Y194466D01*
X158718Y194527D01*
X158728Y194601D01*
X158742Y194786D01*
X158750Y195157D01*
X160250D01*
X160251Y195021D01*
D02*
G37*
G36*
X155251D02*
X155282Y194527D01*
X155294Y194466D01*
X155308Y194417D01*
X155323Y194381D01*
X155340Y194357D01*
X153660D01*
X153677Y194381D01*
X153692Y194417D01*
X153706Y194466D01*
X153718Y194527D01*
X153727Y194601D01*
X153742Y194786D01*
X153750Y195157D01*
X155250D01*
X155251Y195021D01*
D02*
G37*
G36*
X21751D02*
X21782Y194527D01*
X21794Y194466D01*
X21808Y194417D01*
X21823Y194381D01*
X21840Y194357D01*
X20160D01*
X20177Y194381D01*
X20192Y194417D01*
X20206Y194466D01*
X20218Y194527D01*
X20227Y194601D01*
X20242Y194786D01*
X20250Y195157D01*
X21750D01*
X21751Y195021D01*
D02*
G37*
G36*
X16751D02*
X16782Y194527D01*
X16794Y194466D01*
X16808Y194417D01*
X16823Y194381D01*
X16840Y194357D01*
X15160D01*
X15177Y194381D01*
X15192Y194417D01*
X15206Y194466D01*
X15218Y194527D01*
X15227Y194601D01*
X15242Y194786D01*
X15250Y195157D01*
X16750D01*
X16751Y195021D01*
D02*
G37*
G36*
X11751D02*
X11782Y194527D01*
X11794Y194466D01*
X11808Y194417D01*
X11823Y194381D01*
X11840Y194357D01*
X10160D01*
X10177Y194381D01*
X10192Y194417D01*
X10206Y194466D01*
X10218Y194527D01*
X10227Y194601D01*
X10242Y194786D01*
X10250Y195157D01*
X11750D01*
X11751Y195021D01*
D02*
G37*
G36*
X171202Y194141D02*
X171106Y194044D01*
X170780Y193673D01*
X170745Y193622D01*
X170720Y193578D01*
X170705Y193541D01*
X170700Y193512D01*
X169512Y194700D01*
X169541Y194705D01*
X169578Y194720D01*
X169622Y194745D01*
X169673Y194780D01*
X169732Y194825D01*
X169873Y194945D01*
X170141Y195202D01*
X171202Y194141D01*
D02*
G37*
G36*
X27702D02*
X27606Y194044D01*
X27280Y193673D01*
X27245Y193622D01*
X27220Y193578D01*
X27205Y193541D01*
X27200Y193512D01*
X26012Y194700D01*
X26041Y194705D01*
X26077Y194720D01*
X26122Y194745D01*
X26173Y194780D01*
X26232Y194825D01*
X26373Y194945D01*
X26641Y195202D01*
X27702Y194141D01*
D02*
G37*
G36*
X195572Y194011D02*
X195476Y193914D01*
X195150Y193543D01*
X195115Y193492D01*
X195090Y193448D01*
X195075Y193411D01*
X195070Y193382D01*
X193882Y194570D01*
X193911Y194575D01*
X193948Y194590D01*
X193992Y194615D01*
X194043Y194650D01*
X194102Y194695D01*
X194243Y194815D01*
X194511Y195072D01*
X195572Y194011D01*
D02*
G37*
G36*
X52072D02*
X51976Y193914D01*
X51650Y193543D01*
X51615Y193492D01*
X51590Y193448D01*
X51575Y193411D01*
X51570Y193382D01*
X50382Y194570D01*
X50411Y194575D01*
X50448Y194590D01*
X50492Y194615D01*
X50543Y194650D01*
X50602Y194695D01*
X50743Y194815D01*
X51011Y195072D01*
X52072Y194011D01*
D02*
G37*
G36*
X267357Y158061D02*
X267230Y158016D01*
X267118Y157941D01*
X267020Y157836D01*
X266937Y157701D01*
X266870Y157536D01*
X266817Y157341D01*
X266780Y157116D01*
X266757Y156861D01*
X266750Y156576D01*
X265250D01*
X265244Y156861D01*
X265196Y157341D01*
X265154Y157536D01*
X265100Y157701D01*
X265034Y157836D01*
X264956Y157941D01*
X264866Y158016D01*
X264765Y158061D01*
X264651Y158076D01*
X267500D01*
X267357Y158061D01*
D02*
G37*
G36*
X244483D02*
X244356Y158016D01*
X244244Y157941D01*
X244146Y157836D01*
X244063Y157701D01*
X243996Y157536D01*
X243944Y157341D01*
X243906Y157116D01*
X243883Y156861D01*
X243876Y156576D01*
X242376D01*
X242369Y156861D01*
X242346Y157116D01*
X242308Y157341D01*
X242256Y157536D01*
X242189Y157701D01*
X242106Y157836D01*
X242008Y157941D01*
X241896Y158016D01*
X241769Y158061D01*
X241626Y158076D01*
X244626D01*
X244483Y158061D01*
D02*
G37*
G36*
X220483D02*
X220356Y158016D01*
X220244Y157941D01*
X220146Y157836D01*
X220063Y157701D01*
X219996Y157536D01*
X219943Y157341D01*
X219906Y157116D01*
X219883Y156861D01*
X219876Y156576D01*
X218376D01*
X218369Y156861D01*
X218346Y157116D01*
X218308Y157341D01*
X218256Y157536D01*
X218189Y157701D01*
X218106Y157836D01*
X218008Y157941D01*
X217896Y158016D01*
X217769Y158061D01*
X217626Y158076D01*
X220626D01*
X220483Y158061D01*
D02*
G37*
G36*
X196484D02*
X196356Y158016D01*
X196244Y157941D01*
X196146Y157836D01*
X196063Y157701D01*
X195996Y157536D01*
X195943Y157341D01*
X195906Y157116D01*
X195884Y156861D01*
X195876Y156576D01*
X194376D01*
X194369Y156861D01*
X194346Y157116D01*
X194308Y157341D01*
X194256Y157536D01*
X194188Y157701D01*
X194106Y157836D01*
X194009Y157941D01*
X193896Y158016D01*
X193769Y158061D01*
X193626Y158076D01*
X196626D01*
X196484Y158061D01*
D02*
G37*
G36*
X172779D02*
X172651Y158016D01*
X172539Y157941D01*
X172441Y157836D01*
X172359Y157701D01*
X172291Y157536D01*
X172239Y157341D01*
X172201Y157116D01*
X172179Y156861D01*
X172171Y156576D01*
X170671D01*
X170664Y156861D01*
X170641Y157116D01*
X170604Y157341D01*
X170551Y157536D01*
X170484Y157701D01*
X170401Y157836D01*
X170304Y157941D01*
X170191Y158016D01*
X170064Y158061D01*
X169921Y158076D01*
X172921D01*
X172779Y158061D01*
D02*
G37*
G36*
X148779D02*
X148651Y158016D01*
X148539Y157941D01*
X148441Y157836D01*
X148359Y157701D01*
X148291Y157536D01*
X148239Y157341D01*
X148201Y157116D01*
X148179Y156861D01*
X148171Y156576D01*
X146671D01*
X146664Y156861D01*
X146641Y157116D01*
X146604Y157341D01*
X146551Y157536D01*
X146484Y157701D01*
X146401Y157836D01*
X146304Y157941D01*
X146191Y158016D01*
X146064Y158061D01*
X145921Y158076D01*
X148921D01*
X148779Y158061D01*
D02*
G37*
G36*
X123857D02*
X123730Y158016D01*
X123617Y157941D01*
X123520Y157836D01*
X123438Y157701D01*
X123370Y157536D01*
X123318Y157341D01*
X123280Y157116D01*
X123258Y156861D01*
X123250Y156576D01*
X121750D01*
X121744Y156861D01*
X121696Y157341D01*
X121654Y157536D01*
X121600Y157701D01*
X121534Y157836D01*
X121456Y157941D01*
X121367Y158016D01*
X121265Y158061D01*
X121151Y158076D01*
X124000D01*
X123857Y158061D01*
D02*
G37*
G36*
X100984D02*
X100856Y158016D01*
X100743Y157941D01*
X100646Y157836D01*
X100564Y157701D01*
X100496Y157536D01*
X100443Y157341D01*
X100406Y157116D01*
X100383Y156861D01*
X100376Y156576D01*
X98876D01*
X98869Y156861D01*
X98846Y157116D01*
X98808Y157341D01*
X98756Y157536D01*
X98689Y157701D01*
X98606Y157836D01*
X98509Y157941D01*
X98396Y158016D01*
X98269Y158061D01*
X98126Y158076D01*
X101126D01*
X100984Y158061D01*
D02*
G37*
G36*
X76983D02*
X76856Y158016D01*
X76744Y157941D01*
X76646Y157836D01*
X76564Y157701D01*
X76496Y157536D01*
X76443Y157341D01*
X76406Y157116D01*
X76384Y156861D01*
X76376Y156576D01*
X74876D01*
X74869Y156861D01*
X74846Y157116D01*
X74809Y157341D01*
X74756Y157536D01*
X74689Y157701D01*
X74606Y157836D01*
X74509Y157941D01*
X74396Y158016D01*
X74269Y158061D01*
X74126Y158076D01*
X77126D01*
X76983Y158061D01*
D02*
G37*
G36*
X52983D02*
X52856Y158016D01*
X52744Y157941D01*
X52646Y157836D01*
X52564Y157701D01*
X52496Y157536D01*
X52443Y157341D01*
X52406Y157116D01*
X52384Y156861D01*
X52376Y156576D01*
X50876D01*
X50868Y156861D01*
X50846Y157116D01*
X50809Y157341D01*
X50756Y157536D01*
X50688Y157701D01*
X50606Y157836D01*
X50508Y157941D01*
X50396Y158016D01*
X50269Y158061D01*
X50126Y158076D01*
X53126D01*
X52983Y158061D01*
D02*
G37*
G36*
X29279D02*
X29151Y158016D01*
X29039Y157941D01*
X28941Y157836D01*
X28859Y157701D01*
X28791Y157536D01*
X28739Y157341D01*
X28701Y157116D01*
X28679Y156861D01*
X28671Y156576D01*
X27171D01*
X27164Y156861D01*
X27141Y157116D01*
X27104Y157341D01*
X27051Y157536D01*
X26984Y157701D01*
X26901Y157836D01*
X26804Y157941D01*
X26691Y158016D01*
X26564Y158061D01*
X26421Y158076D01*
X29421D01*
X29279Y158061D01*
D02*
G37*
G36*
X5279D02*
X5151Y158016D01*
X5039Y157941D01*
X4941Y157836D01*
X4859Y157701D01*
X4791Y157536D01*
X4739Y157341D01*
X4701Y157116D01*
X4679Y156861D01*
X4671Y156576D01*
X3171D01*
X3164Y156861D01*
X3141Y157116D01*
X3104Y157341D01*
X3051Y157536D01*
X2984Y157701D01*
X2901Y157836D01*
X2804Y157941D01*
X2691Y158016D01*
X2564Y158061D01*
X2421Y158076D01*
X5421D01*
X5279Y158061D01*
D02*
G37*
G36*
X195887Y152141D02*
X195918Y151854D01*
X195971Y151576D01*
X196046Y151307D01*
X196141Y151047D01*
X196258Y150795D01*
X196396Y150552D01*
X196555Y150318D01*
X196735Y150092D01*
X196937Y149876D01*
X196187Y148505D01*
X195975Y148696D01*
X195762Y148844D01*
X195550Y148950D01*
X195338Y149014D01*
X195126Y149035D01*
X194914Y149014D01*
X194702Y148950D01*
X194490Y148844D01*
X194277Y148696D01*
X194065Y148505D01*
X193315Y149876D01*
X193517Y150092D01*
X193697Y150318D01*
X193856Y150552D01*
X193994Y150795D01*
X194111Y151047D01*
X194206Y151307D01*
X194281Y151576D01*
X194334Y151854D01*
X194365Y152141D01*
X194376Y152437D01*
X195876D01*
X195887Y152141D01*
D02*
G37*
G36*
X52387D02*
X52418Y151854D01*
X52471Y151576D01*
X52546Y151307D01*
X52641Y151047D01*
X52758Y150795D01*
X52896Y150552D01*
X53055Y150318D01*
X53235Y150092D01*
X53437Y149876D01*
X52687Y148505D01*
X52474Y148696D01*
X52262Y148844D01*
X52050Y148950D01*
X51838Y149014D01*
X51626Y149035D01*
X51414Y149014D01*
X51202Y148950D01*
X50990Y148844D01*
X50777Y148696D01*
X50565Y148505D01*
X49815Y149876D01*
X50017Y150092D01*
X50197Y150318D01*
X50356Y150552D01*
X50494Y150795D01*
X50611Y151047D01*
X50706Y151307D01*
X50780Y151576D01*
X50834Y151854D01*
X50865Y152141D01*
X50876Y152437D01*
X52376D01*
X52387Y152141D01*
D02*
G37*
G36*
X270823Y148619D02*
X270808Y148583D01*
X270794Y148534D01*
X270782Y148473D01*
X270773Y148399D01*
X270758Y148214D01*
X270750Y147843D01*
X269250D01*
X269249Y147979D01*
X269218Y148473D01*
X269206Y148534D01*
X269192Y148583D01*
X269177Y148619D01*
X269160Y148643D01*
X270840D01*
X270823Y148619D01*
D02*
G37*
G36*
X127323D02*
X127308Y148583D01*
X127294Y148534D01*
X127282Y148473D01*
X127272Y148399D01*
X127258Y148214D01*
X127250Y147843D01*
X125750D01*
X125749Y147979D01*
X125718Y148473D01*
X125706Y148534D01*
X125692Y148583D01*
X125677Y148619D01*
X125660Y148643D01*
X127340D01*
X127323Y148619D01*
D02*
G37*
G36*
X254000Y146500D02*
X248500D01*
Y159000D01*
X254000D01*
Y146500D01*
D02*
G37*
G36*
X110500D02*
X105000D01*
Y159000D01*
X110500D01*
Y146500D01*
D02*
G37*
G36*
X261500Y146000D02*
X256000Y146000D01*
X256000Y159500D01*
X261500D01*
X261500Y146000D01*
D02*
G37*
G36*
X118000D02*
X112500Y146000D01*
X112500Y159500D01*
X118000D01*
X118000Y146000D01*
D02*
G37*
G36*
X156268Y143518D02*
X156074Y143503D01*
X155901Y143458D01*
X155749Y143383D01*
X155616Y143278D01*
X155504Y143143D01*
X155413Y142978D01*
X155342Y142783D01*
X155291Y142558D01*
X155260Y142303D01*
X155250Y142018D01*
X153750D01*
X153735Y142303D01*
X153690Y142558D01*
X153615Y142783D01*
X153510Y142978D01*
X153375Y143143D01*
X153210Y143278D01*
X153015Y143383D01*
X152790Y143458D01*
X152535Y143503D01*
X152250Y143518D01*
X154500Y145018D01*
X156268Y143518D01*
D02*
G37*
G36*
X12768D02*
X12574Y143503D01*
X12401Y143458D01*
X12249Y143383D01*
X12116Y143278D01*
X12004Y143143D01*
X11913Y142978D01*
X11842Y142783D01*
X11791Y142558D01*
X11760Y142303D01*
X11750Y142018D01*
X10250D01*
X10235Y142303D01*
X10190Y142558D01*
X10115Y142783D01*
X10010Y142978D01*
X9875Y143143D01*
X9710Y143278D01*
X9515Y143383D01*
X9290Y143458D01*
X9035Y143503D01*
X8750Y143518D01*
X11000Y145018D01*
X12768Y143518D01*
D02*
G37*
G36*
X165251Y139021D02*
X165282Y138527D01*
X165294Y138466D01*
X165308Y138417D01*
X165323Y138381D01*
X165340Y138357D01*
X163660D01*
X163677Y138381D01*
X163692Y138417D01*
X163706Y138466D01*
X163718Y138527D01*
X163727Y138601D01*
X163742Y138786D01*
X163750Y139157D01*
X165250D01*
X165251Y139021D01*
D02*
G37*
G36*
X160251D02*
X160282Y138527D01*
X160294Y138466D01*
X160308Y138417D01*
X160323Y138381D01*
X160340Y138357D01*
X158660D01*
X158677Y138381D01*
X158692Y138417D01*
X158706Y138466D01*
X158718Y138527D01*
X158728Y138601D01*
X158742Y138786D01*
X158750Y139157D01*
X160250D01*
X160251Y139021D01*
D02*
G37*
G36*
X155251D02*
X155282Y138527D01*
X155294Y138466D01*
X155308Y138417D01*
X155323Y138381D01*
X155340Y138357D01*
X153660D01*
X153677Y138381D01*
X153692Y138417D01*
X153706Y138466D01*
X153718Y138527D01*
X153727Y138601D01*
X153742Y138786D01*
X153750Y139157D01*
X155250D01*
X155251Y139021D01*
D02*
G37*
G36*
X21751D02*
X21782Y138527D01*
X21794Y138466D01*
X21808Y138417D01*
X21823Y138381D01*
X21840Y138357D01*
X20160D01*
X20177Y138381D01*
X20192Y138417D01*
X20206Y138466D01*
X20218Y138527D01*
X20227Y138601D01*
X20242Y138786D01*
X20250Y139157D01*
X21750D01*
X21751Y139021D01*
D02*
G37*
G36*
X16751D02*
X16782Y138527D01*
X16794Y138466D01*
X16808Y138417D01*
X16823Y138381D01*
X16840Y138357D01*
X15160D01*
X15177Y138381D01*
X15192Y138417D01*
X15206Y138466D01*
X15218Y138527D01*
X15227Y138601D01*
X15242Y138786D01*
X15250Y139157D01*
X16750D01*
X16751Y139021D01*
D02*
G37*
G36*
X11751D02*
X11782Y138527D01*
X11794Y138466D01*
X11808Y138417D01*
X11823Y138381D01*
X11840Y138357D01*
X10160D01*
X10177Y138381D01*
X10192Y138417D01*
X10206Y138466D01*
X10218Y138527D01*
X10227Y138601D01*
X10242Y138786D01*
X10250Y139157D01*
X11750D01*
X11751Y139021D01*
D02*
G37*
G36*
X171202Y138141D02*
X171106Y138044D01*
X170780Y137673D01*
X170745Y137622D01*
X170720Y137577D01*
X170705Y137541D01*
X170700Y137512D01*
X169512Y138700D01*
X169541Y138705D01*
X169578Y138720D01*
X169622Y138745D01*
X169673Y138780D01*
X169732Y138825D01*
X169873Y138945D01*
X170141Y139202D01*
X171202Y138141D01*
D02*
G37*
G36*
X27702D02*
X27606Y138044D01*
X27280Y137673D01*
X27245Y137622D01*
X27220Y137577D01*
X27205Y137541D01*
X27200Y137512D01*
X26012Y138700D01*
X26041Y138705D01*
X26077Y138720D01*
X26122Y138745D01*
X26173Y138780D01*
X26232Y138825D01*
X26373Y138945D01*
X26641Y139202D01*
X27702Y138141D01*
D02*
G37*
G36*
X195572Y138011D02*
X195476Y137914D01*
X195150Y137543D01*
X195115Y137492D01*
X195090Y137448D01*
X195075Y137411D01*
X195070Y137382D01*
X193882Y138570D01*
X193911Y138575D01*
X193948Y138590D01*
X193992Y138615D01*
X194043Y138650D01*
X194102Y138695D01*
X194243Y138815D01*
X194511Y139072D01*
X195572Y138011D01*
D02*
G37*
G36*
X52072D02*
X51976Y137914D01*
X51650Y137543D01*
X51615Y137492D01*
X51590Y137448D01*
X51575Y137411D01*
X51570Y137382D01*
X50382Y138570D01*
X50411Y138575D01*
X50448Y138590D01*
X50492Y138615D01*
X50543Y138650D01*
X50602Y138695D01*
X50743Y138815D01*
X51011Y139072D01*
X52072Y138011D01*
D02*
G37*
G36*
X267357Y102061D02*
X267230Y102016D01*
X267118Y101941D01*
X267020Y101836D01*
X266937Y101701D01*
X266870Y101536D01*
X266817Y101341D01*
X266780Y101116D01*
X266757Y100861D01*
X266750Y100576D01*
X265250D01*
X265244Y100861D01*
X265196Y101341D01*
X265154Y101536D01*
X265100Y101701D01*
X265034Y101836D01*
X264956Y101941D01*
X264866Y102016D01*
X264765Y102061D01*
X264651Y102076D01*
X267500D01*
X267357Y102061D01*
D02*
G37*
G36*
X244483D02*
X244356Y102016D01*
X244244Y101941D01*
X244146Y101836D01*
X244063Y101701D01*
X243996Y101536D01*
X243944Y101341D01*
X243906Y101116D01*
X243883Y100861D01*
X243876Y100576D01*
X242376D01*
X242369Y100861D01*
X242346Y101116D01*
X242308Y101341D01*
X242256Y101536D01*
X242189Y101701D01*
X242106Y101836D01*
X242008Y101941D01*
X241896Y102016D01*
X241769Y102061D01*
X241626Y102076D01*
X244626D01*
X244483Y102061D01*
D02*
G37*
G36*
X220483D02*
X220356Y102016D01*
X220244Y101941D01*
X220146Y101836D01*
X220063Y101701D01*
X219996Y101536D01*
X219943Y101341D01*
X219906Y101116D01*
X219883Y100861D01*
X219876Y100576D01*
X218376D01*
X218369Y100861D01*
X218346Y101116D01*
X218308Y101341D01*
X218256Y101536D01*
X218189Y101701D01*
X218106Y101836D01*
X218008Y101941D01*
X217896Y102016D01*
X217769Y102061D01*
X217626Y102076D01*
X220626D01*
X220483Y102061D01*
D02*
G37*
G36*
X196484D02*
X196356Y102016D01*
X196244Y101941D01*
X196146Y101836D01*
X196063Y101701D01*
X195996Y101536D01*
X195943Y101341D01*
X195906Y101116D01*
X195884Y100861D01*
X195876Y100576D01*
X194376D01*
X194369Y100861D01*
X194346Y101116D01*
X194308Y101341D01*
X194256Y101536D01*
X194188Y101701D01*
X194106Y101836D01*
X194009Y101941D01*
X193896Y102016D01*
X193769Y102061D01*
X193626Y102076D01*
X196626D01*
X196484Y102061D01*
D02*
G37*
G36*
X172779D02*
X172651Y102016D01*
X172539Y101941D01*
X172441Y101836D01*
X172359Y101701D01*
X172291Y101536D01*
X172239Y101341D01*
X172201Y101116D01*
X172179Y100861D01*
X172171Y100576D01*
X170671D01*
X170664Y100861D01*
X170641Y101116D01*
X170604Y101341D01*
X170551Y101536D01*
X170484Y101701D01*
X170401Y101836D01*
X170304Y101941D01*
X170191Y102016D01*
X170064Y102061D01*
X169921Y102076D01*
X172921D01*
X172779Y102061D01*
D02*
G37*
G36*
X148779D02*
X148651Y102016D01*
X148539Y101941D01*
X148441Y101836D01*
X148359Y101701D01*
X148291Y101536D01*
X148239Y101341D01*
X148201Y101116D01*
X148179Y100861D01*
X148171Y100576D01*
X146671D01*
X146664Y100861D01*
X146641Y101116D01*
X146604Y101341D01*
X146551Y101536D01*
X146484Y101701D01*
X146401Y101836D01*
X146304Y101941D01*
X146191Y102016D01*
X146064Y102061D01*
X145921Y102076D01*
X148921D01*
X148779Y102061D01*
D02*
G37*
G36*
X123857D02*
X123730Y102016D01*
X123617Y101941D01*
X123520Y101836D01*
X123438Y101701D01*
X123370Y101536D01*
X123318Y101341D01*
X123280Y101116D01*
X123258Y100861D01*
X123250Y100576D01*
X121750D01*
X121744Y100861D01*
X121696Y101341D01*
X121654Y101536D01*
X121600Y101701D01*
X121534Y101836D01*
X121456Y101941D01*
X121367Y102016D01*
X121265Y102061D01*
X121151Y102076D01*
X124000D01*
X123857Y102061D01*
D02*
G37*
G36*
X100984D02*
X100856Y102016D01*
X100743Y101941D01*
X100646Y101836D01*
X100564Y101701D01*
X100496Y101536D01*
X100443Y101341D01*
X100406Y101116D01*
X100383Y100861D01*
X100376Y100576D01*
X98876D01*
X98869Y100861D01*
X98846Y101116D01*
X98808Y101341D01*
X98756Y101536D01*
X98689Y101701D01*
X98606Y101836D01*
X98509Y101941D01*
X98396Y102016D01*
X98269Y102061D01*
X98126Y102076D01*
X101126D01*
X100984Y102061D01*
D02*
G37*
G36*
X76983D02*
X76856Y102016D01*
X76744Y101941D01*
X76646Y101836D01*
X76564Y101701D01*
X76496Y101536D01*
X76443Y101341D01*
X76406Y101116D01*
X76384Y100861D01*
X76376Y100576D01*
X74876D01*
X74869Y100861D01*
X74846Y101116D01*
X74809Y101341D01*
X74756Y101536D01*
X74689Y101701D01*
X74606Y101836D01*
X74509Y101941D01*
X74396Y102016D01*
X74269Y102061D01*
X74126Y102076D01*
X77126D01*
X76983Y102061D01*
D02*
G37*
G36*
X52983D02*
X52856Y102016D01*
X52744Y101941D01*
X52646Y101836D01*
X52564Y101701D01*
X52496Y101536D01*
X52443Y101341D01*
X52406Y101116D01*
X52384Y100861D01*
X52376Y100576D01*
X50876D01*
X50868Y100861D01*
X50846Y101116D01*
X50809Y101341D01*
X50756Y101536D01*
X50688Y101701D01*
X50606Y101836D01*
X50508Y101941D01*
X50396Y102016D01*
X50269Y102061D01*
X50126Y102076D01*
X53126D01*
X52983Y102061D01*
D02*
G37*
G36*
X29279D02*
X29151Y102016D01*
X29039Y101941D01*
X28941Y101836D01*
X28859Y101701D01*
X28791Y101536D01*
X28739Y101341D01*
X28701Y101116D01*
X28679Y100861D01*
X28671Y100576D01*
X27171D01*
X27164Y100861D01*
X27141Y101116D01*
X27104Y101341D01*
X27051Y101536D01*
X26984Y101701D01*
X26901Y101836D01*
X26804Y101941D01*
X26691Y102016D01*
X26564Y102061D01*
X26421Y102076D01*
X29421D01*
X29279Y102061D01*
D02*
G37*
G36*
X5279D02*
X5151Y102016D01*
X5039Y101941D01*
X4941Y101836D01*
X4859Y101701D01*
X4791Y101536D01*
X4739Y101341D01*
X4701Y101116D01*
X4679Y100861D01*
X4671Y100576D01*
X3171D01*
X3164Y100861D01*
X3141Y101116D01*
X3104Y101341D01*
X3051Y101536D01*
X2984Y101701D01*
X2901Y101836D01*
X2804Y101941D01*
X2691Y102016D01*
X2564Y102061D01*
X2421Y102076D01*
X5421D01*
X5279Y102061D01*
D02*
G37*
G36*
X195887Y96141D02*
X195918Y95854D01*
X195971Y95576D01*
X196046Y95307D01*
X196141Y95047D01*
X196258Y94795D01*
X196396Y94552D01*
X196555Y94318D01*
X196735Y94093D01*
X196937Y93876D01*
X196187Y92505D01*
X195975Y92696D01*
X195762Y92844D01*
X195550Y92950D01*
X195338Y93014D01*
X195126Y93035D01*
X194914Y93014D01*
X194702Y92950D01*
X194490Y92844D01*
X194277Y92696D01*
X194065Y92505D01*
X193315Y93876D01*
X193517Y94093D01*
X193697Y94318D01*
X193856Y94552D01*
X193994Y94795D01*
X194111Y95047D01*
X194206Y95307D01*
X194281Y95576D01*
X194334Y95854D01*
X194365Y96141D01*
X194376Y96437D01*
X195876D01*
X195887Y96141D01*
D02*
G37*
G36*
X52387D02*
X52418Y95854D01*
X52471Y95576D01*
X52546Y95307D01*
X52641Y95047D01*
X52758Y94795D01*
X52896Y94552D01*
X53055Y94318D01*
X53235Y94093D01*
X53437Y93876D01*
X52687Y92505D01*
X52474Y92696D01*
X52262Y92844D01*
X52050Y92950D01*
X51838Y93014D01*
X51626Y93035D01*
X51414Y93014D01*
X51202Y92950D01*
X50990Y92844D01*
X50777Y92696D01*
X50565Y92505D01*
X49815Y93876D01*
X50017Y94093D01*
X50197Y94318D01*
X50356Y94552D01*
X50494Y94795D01*
X50611Y95047D01*
X50706Y95307D01*
X50780Y95576D01*
X50834Y95854D01*
X50865Y96141D01*
X50876Y96437D01*
X52376D01*
X52387Y96141D01*
D02*
G37*
G36*
X270823Y92619D02*
X270808Y92583D01*
X270794Y92534D01*
X270782Y92473D01*
X270773Y92399D01*
X270758Y92214D01*
X270750Y91843D01*
X269250D01*
X269249Y91979D01*
X269218Y92473D01*
X269206Y92534D01*
X269192Y92583D01*
X269177Y92619D01*
X269160Y92643D01*
X270840D01*
X270823Y92619D01*
D02*
G37*
G36*
X127323D02*
X127308Y92583D01*
X127294Y92534D01*
X127282Y92473D01*
X127272Y92399D01*
X127258Y92214D01*
X127250Y91843D01*
X125750D01*
X125749Y91979D01*
X125718Y92473D01*
X125706Y92534D01*
X125692Y92583D01*
X125677Y92619D01*
X125660Y92643D01*
X127340D01*
X127323Y92619D01*
D02*
G37*
G36*
X254000Y90500D02*
X248500D01*
Y103000D01*
X254000D01*
Y90500D01*
D02*
G37*
G36*
X110500D02*
X105000D01*
Y103000D01*
X110500D01*
Y90500D01*
D02*
G37*
G36*
X261500Y90000D02*
X256000Y90000D01*
X256000Y103500D01*
X261500D01*
X261500Y90000D01*
D02*
G37*
G36*
X118000D02*
X112500Y90000D01*
X112500Y103500D01*
X118000D01*
X118000Y90000D01*
D02*
G37*
G36*
X156268Y87518D02*
X156074Y87503D01*
X155901Y87458D01*
X155749Y87383D01*
X155616Y87278D01*
X155504Y87143D01*
X155413Y86978D01*
X155342Y86783D01*
X155291Y86558D01*
X155260Y86303D01*
X155250Y86018D01*
X153750D01*
X153735Y86303D01*
X153690Y86558D01*
X153615Y86783D01*
X153510Y86978D01*
X153375Y87143D01*
X153210Y87278D01*
X153015Y87383D01*
X152790Y87458D01*
X152535Y87503D01*
X152250Y87518D01*
X154500Y89018D01*
X156268Y87518D01*
D02*
G37*
G36*
X12768D02*
X12574Y87503D01*
X12401Y87458D01*
X12249Y87383D01*
X12116Y87278D01*
X12004Y87143D01*
X11913Y86978D01*
X11842Y86783D01*
X11791Y86558D01*
X11760Y86303D01*
X11750Y86018D01*
X10250D01*
X10235Y86303D01*
X10190Y86558D01*
X10115Y86783D01*
X10010Y86978D01*
X9875Y87143D01*
X9710Y87278D01*
X9515Y87383D01*
X9290Y87458D01*
X9035Y87503D01*
X8750Y87518D01*
X11000Y89018D01*
X12768Y87518D01*
D02*
G37*
G36*
X165251Y83021D02*
X165282Y82527D01*
X165294Y82466D01*
X165308Y82417D01*
X165323Y82381D01*
X165340Y82357D01*
X163660D01*
X163677Y82381D01*
X163692Y82417D01*
X163706Y82466D01*
X163718Y82527D01*
X163727Y82601D01*
X163742Y82786D01*
X163750Y83157D01*
X165250D01*
X165251Y83021D01*
D02*
G37*
G36*
X160251D02*
X160282Y82527D01*
X160294Y82466D01*
X160308Y82417D01*
X160323Y82381D01*
X160340Y82357D01*
X158660D01*
X158677Y82381D01*
X158692Y82417D01*
X158706Y82466D01*
X158718Y82527D01*
X158728Y82601D01*
X158742Y82786D01*
X158750Y83157D01*
X160250D01*
X160251Y83021D01*
D02*
G37*
G36*
X155251D02*
X155282Y82527D01*
X155294Y82466D01*
X155308Y82417D01*
X155323Y82381D01*
X155340Y82357D01*
X153660D01*
X153677Y82381D01*
X153692Y82417D01*
X153706Y82466D01*
X153718Y82527D01*
X153727Y82601D01*
X153742Y82786D01*
X153750Y83157D01*
X155250D01*
X155251Y83021D01*
D02*
G37*
G36*
X21751D02*
X21782Y82527D01*
X21794Y82466D01*
X21808Y82417D01*
X21823Y82381D01*
X21840Y82357D01*
X20160D01*
X20177Y82381D01*
X20192Y82417D01*
X20206Y82466D01*
X20218Y82527D01*
X20227Y82601D01*
X20242Y82786D01*
X20250Y83157D01*
X21750D01*
X21751Y83021D01*
D02*
G37*
G36*
X16751D02*
X16782Y82527D01*
X16794Y82466D01*
X16808Y82417D01*
X16823Y82381D01*
X16840Y82357D01*
X15160D01*
X15177Y82381D01*
X15192Y82417D01*
X15206Y82466D01*
X15218Y82527D01*
X15227Y82601D01*
X15242Y82786D01*
X15250Y83157D01*
X16750D01*
X16751Y83021D01*
D02*
G37*
G36*
X11751D02*
X11782Y82527D01*
X11794Y82466D01*
X11808Y82417D01*
X11823Y82381D01*
X11840Y82357D01*
X10160D01*
X10177Y82381D01*
X10192Y82417D01*
X10206Y82466D01*
X10218Y82527D01*
X10227Y82601D01*
X10242Y82786D01*
X10250Y83157D01*
X11750D01*
X11751Y83021D01*
D02*
G37*
G36*
X171202Y82141D02*
X171106Y82044D01*
X170780Y81673D01*
X170745Y81622D01*
X170720Y81577D01*
X170705Y81541D01*
X170700Y81512D01*
X169512Y82700D01*
X169541Y82705D01*
X169578Y82720D01*
X169622Y82745D01*
X169673Y82780D01*
X169732Y82825D01*
X169873Y82945D01*
X170141Y83202D01*
X171202Y82141D01*
D02*
G37*
G36*
X27702D02*
X27606Y82044D01*
X27280Y81673D01*
X27245Y81622D01*
X27220Y81577D01*
X27205Y81541D01*
X27200Y81512D01*
X26012Y82700D01*
X26041Y82705D01*
X26077Y82720D01*
X26122Y82745D01*
X26173Y82780D01*
X26232Y82825D01*
X26373Y82945D01*
X26641Y83202D01*
X27702Y82141D01*
D02*
G37*
G36*
X195572Y82011D02*
X195476Y81914D01*
X195150Y81543D01*
X195115Y81492D01*
X195090Y81448D01*
X195075Y81411D01*
X195070Y81382D01*
X193882Y82570D01*
X193911Y82575D01*
X193948Y82590D01*
X193992Y82615D01*
X194043Y82650D01*
X194102Y82695D01*
X194243Y82815D01*
X194511Y83072D01*
X195572Y82011D01*
D02*
G37*
G36*
X52072D02*
X51976Y81914D01*
X51650Y81543D01*
X51615Y81492D01*
X51590Y81448D01*
X51575Y81411D01*
X51570Y81382D01*
X50382Y82570D01*
X50411Y82575D01*
X50448Y82590D01*
X50492Y82615D01*
X50543Y82650D01*
X50602Y82695D01*
X50743Y82815D01*
X51011Y83072D01*
X52072Y82011D01*
D02*
G37*
G36*
X267357Y46061D02*
X267230Y46016D01*
X267118Y45941D01*
X267020Y45836D01*
X266937Y45701D01*
X266870Y45536D01*
X266817Y45341D01*
X266780Y45116D01*
X266757Y44861D01*
X266750Y44576D01*
X265250D01*
X265244Y44861D01*
X265196Y45341D01*
X265154Y45536D01*
X265100Y45701D01*
X265034Y45836D01*
X264956Y45941D01*
X264866Y46016D01*
X264765Y46061D01*
X264651Y46076D01*
X267500D01*
X267357Y46061D01*
D02*
G37*
G36*
X244483D02*
X244356Y46016D01*
X244244Y45941D01*
X244146Y45836D01*
X244063Y45701D01*
X243996Y45536D01*
X243944Y45341D01*
X243906Y45116D01*
X243883Y44861D01*
X243876Y44576D01*
X242376D01*
X242369Y44861D01*
X242346Y45116D01*
X242308Y45341D01*
X242256Y45536D01*
X242189Y45701D01*
X242106Y45836D01*
X242008Y45941D01*
X241896Y46016D01*
X241769Y46061D01*
X241626Y46076D01*
X244626D01*
X244483Y46061D01*
D02*
G37*
G36*
X220483D02*
X220356Y46016D01*
X220244Y45941D01*
X220146Y45836D01*
X220063Y45701D01*
X219996Y45536D01*
X219943Y45341D01*
X219906Y45116D01*
X219883Y44861D01*
X219876Y44576D01*
X218376D01*
X218369Y44861D01*
X218346Y45116D01*
X218308Y45341D01*
X218256Y45536D01*
X218189Y45701D01*
X218106Y45836D01*
X218008Y45941D01*
X217896Y46016D01*
X217769Y46061D01*
X217626Y46076D01*
X220626D01*
X220483Y46061D01*
D02*
G37*
G36*
X196484D02*
X196356Y46016D01*
X196244Y45941D01*
X196146Y45836D01*
X196063Y45701D01*
X195996Y45536D01*
X195943Y45341D01*
X195906Y45116D01*
X195884Y44861D01*
X195876Y44576D01*
X194376D01*
X194369Y44861D01*
X194346Y45116D01*
X194308Y45341D01*
X194256Y45536D01*
X194188Y45701D01*
X194106Y45836D01*
X194009Y45941D01*
X193896Y46016D01*
X193769Y46061D01*
X193626Y46076D01*
X196626D01*
X196484Y46061D01*
D02*
G37*
G36*
X172779D02*
X172651Y46016D01*
X172539Y45941D01*
X172441Y45836D01*
X172359Y45701D01*
X172291Y45536D01*
X172239Y45341D01*
X172201Y45116D01*
X172179Y44861D01*
X172171Y44576D01*
X170671D01*
X170664Y44861D01*
X170641Y45116D01*
X170604Y45341D01*
X170551Y45536D01*
X170484Y45701D01*
X170401Y45836D01*
X170304Y45941D01*
X170191Y46016D01*
X170064Y46061D01*
X169921Y46076D01*
X172921D01*
X172779Y46061D01*
D02*
G37*
G36*
X148779D02*
X148651Y46016D01*
X148539Y45941D01*
X148441Y45836D01*
X148359Y45701D01*
X148291Y45536D01*
X148239Y45341D01*
X148201Y45116D01*
X148179Y44861D01*
X148171Y44576D01*
X146671D01*
X146664Y44861D01*
X146641Y45116D01*
X146604Y45341D01*
X146551Y45536D01*
X146484Y45701D01*
X146401Y45836D01*
X146304Y45941D01*
X146191Y46016D01*
X146064Y46061D01*
X145921Y46076D01*
X148921D01*
X148779Y46061D01*
D02*
G37*
G36*
X123857D02*
X123730Y46016D01*
X123617Y45941D01*
X123520Y45836D01*
X123438Y45701D01*
X123370Y45536D01*
X123318Y45341D01*
X123280Y45116D01*
X123258Y44861D01*
X123250Y44576D01*
X121750D01*
X121744Y44861D01*
X121696Y45341D01*
X121654Y45536D01*
X121600Y45701D01*
X121534Y45836D01*
X121456Y45941D01*
X121367Y46016D01*
X121265Y46061D01*
X121151Y46076D01*
X124000D01*
X123857Y46061D01*
D02*
G37*
G36*
X100984D02*
X100856Y46016D01*
X100743Y45941D01*
X100646Y45836D01*
X100564Y45701D01*
X100496Y45536D01*
X100443Y45341D01*
X100406Y45116D01*
X100383Y44861D01*
X100376Y44576D01*
X98876D01*
X98869Y44861D01*
X98846Y45116D01*
X98808Y45341D01*
X98756Y45536D01*
X98689Y45701D01*
X98606Y45836D01*
X98509Y45941D01*
X98396Y46016D01*
X98269Y46061D01*
X98126Y46076D01*
X101126D01*
X100984Y46061D01*
D02*
G37*
G36*
X76983D02*
X76856Y46016D01*
X76744Y45941D01*
X76646Y45836D01*
X76564Y45701D01*
X76496Y45536D01*
X76443Y45341D01*
X76406Y45116D01*
X76384Y44861D01*
X76376Y44576D01*
X74876D01*
X74869Y44861D01*
X74846Y45116D01*
X74809Y45341D01*
X74756Y45536D01*
X74689Y45701D01*
X74606Y45836D01*
X74509Y45941D01*
X74396Y46016D01*
X74269Y46061D01*
X74126Y46076D01*
X77126D01*
X76983Y46061D01*
D02*
G37*
G36*
X52983D02*
X52856Y46016D01*
X52744Y45941D01*
X52646Y45836D01*
X52564Y45701D01*
X52496Y45536D01*
X52443Y45341D01*
X52406Y45116D01*
X52384Y44861D01*
X52376Y44576D01*
X50876D01*
X50868Y44861D01*
X50846Y45116D01*
X50809Y45341D01*
X50756Y45536D01*
X50688Y45701D01*
X50606Y45836D01*
X50508Y45941D01*
X50396Y46016D01*
X50269Y46061D01*
X50126Y46076D01*
X53126D01*
X52983Y46061D01*
D02*
G37*
G36*
X29279D02*
X29151Y46016D01*
X29039Y45941D01*
X28941Y45836D01*
X28859Y45701D01*
X28791Y45536D01*
X28739Y45341D01*
X28701Y45116D01*
X28679Y44861D01*
X28671Y44576D01*
X27171D01*
X27164Y44861D01*
X27141Y45116D01*
X27104Y45341D01*
X27051Y45536D01*
X26984Y45701D01*
X26901Y45836D01*
X26804Y45941D01*
X26691Y46016D01*
X26564Y46061D01*
X26421Y46076D01*
X29421D01*
X29279Y46061D01*
D02*
G37*
G36*
X5279D02*
X5151Y46016D01*
X5039Y45941D01*
X4941Y45836D01*
X4859Y45701D01*
X4791Y45536D01*
X4739Y45341D01*
X4701Y45116D01*
X4679Y44861D01*
X4671Y44576D01*
X3171D01*
X3164Y44861D01*
X3141Y45116D01*
X3104Y45341D01*
X3051Y45536D01*
X2984Y45701D01*
X2901Y45836D01*
X2804Y45941D01*
X2691Y46016D01*
X2564Y46061D01*
X2421Y46076D01*
X5421D01*
X5279Y46061D01*
D02*
G37*
G36*
X195887Y40141D02*
X195918Y39854D01*
X195971Y39576D01*
X196046Y39307D01*
X196141Y39046D01*
X196258Y38795D01*
X196396Y38552D01*
X196555Y38318D01*
X196735Y38092D01*
X196937Y37876D01*
X196187Y36505D01*
X195975Y36696D01*
X195762Y36844D01*
X195550Y36950D01*
X195338Y37014D01*
X195126Y37035D01*
X194914Y37014D01*
X194702Y36950D01*
X194490Y36844D01*
X194277Y36696D01*
X194065Y36505D01*
X193315Y37876D01*
X193517Y38092D01*
X193697Y38318D01*
X193856Y38552D01*
X193994Y38795D01*
X194111Y39046D01*
X194206Y39307D01*
X194281Y39576D01*
X194334Y39854D01*
X194365Y40141D01*
X194376Y40437D01*
X195876D01*
X195887Y40141D01*
D02*
G37*
G36*
X52387D02*
X52418Y39854D01*
X52471Y39576D01*
X52546Y39307D01*
X52641Y39046D01*
X52758Y38795D01*
X52896Y38552D01*
X53055Y38318D01*
X53235Y38092D01*
X53437Y37876D01*
X52687Y36505D01*
X52474Y36696D01*
X52262Y36844D01*
X52050Y36950D01*
X51838Y37014D01*
X51626Y37035D01*
X51414Y37014D01*
X51202Y36950D01*
X50990Y36844D01*
X50777Y36696D01*
X50565Y36505D01*
X49815Y37876D01*
X50017Y38092D01*
X50197Y38318D01*
X50356Y38552D01*
X50494Y38795D01*
X50611Y39046D01*
X50706Y39307D01*
X50780Y39576D01*
X50834Y39854D01*
X50865Y40141D01*
X50876Y40437D01*
X52376D01*
X52387Y40141D01*
D02*
G37*
G36*
X270823Y36619D02*
X270808Y36583D01*
X270794Y36534D01*
X270782Y36473D01*
X270773Y36399D01*
X270758Y36214D01*
X270750Y35843D01*
X269250D01*
X269249Y35979D01*
X269218Y36473D01*
X269206Y36534D01*
X269192Y36583D01*
X269177Y36619D01*
X269160Y36643D01*
X270840D01*
X270823Y36619D01*
D02*
G37*
G36*
X127323D02*
X127308Y36583D01*
X127294Y36534D01*
X127282Y36473D01*
X127272Y36399D01*
X127258Y36214D01*
X127250Y35843D01*
X125750D01*
X125749Y35979D01*
X125718Y36473D01*
X125706Y36534D01*
X125692Y36583D01*
X125677Y36619D01*
X125660Y36643D01*
X127340D01*
X127323Y36619D01*
D02*
G37*
G36*
X254000Y34500D02*
X248500D01*
Y47000D01*
X254000D01*
Y34500D01*
D02*
G37*
G36*
X110500D02*
X105000D01*
Y47000D01*
X110500D01*
Y34500D01*
D02*
G37*
G36*
X261500Y34000D02*
X256000Y34000D01*
X256000Y47500D01*
X261500D01*
X261500Y34000D01*
D02*
G37*
G36*
X118000D02*
X112500Y34000D01*
X112500Y47500D01*
X118000D01*
X118000Y34000D01*
D02*
G37*
G36*
X156268Y31518D02*
X156074Y31503D01*
X155901Y31458D01*
X155749Y31383D01*
X155616Y31278D01*
X155504Y31143D01*
X155413Y30978D01*
X155342Y30783D01*
X155291Y30558D01*
X155260Y30303D01*
X155250Y30018D01*
X153750D01*
X153735Y30303D01*
X153690Y30558D01*
X153615Y30783D01*
X153510Y30978D01*
X153375Y31143D01*
X153210Y31278D01*
X153015Y31383D01*
X152790Y31458D01*
X152535Y31503D01*
X152250Y31518D01*
X154500Y33018D01*
X156268Y31518D01*
D02*
G37*
G36*
X12768D02*
X12574Y31503D01*
X12401Y31458D01*
X12249Y31383D01*
X12116Y31278D01*
X12004Y31143D01*
X11913Y30978D01*
X11842Y30783D01*
X11791Y30558D01*
X11760Y30303D01*
X11750Y30018D01*
X10250D01*
X10235Y30303D01*
X10190Y30558D01*
X10115Y30783D01*
X10010Y30978D01*
X9875Y31143D01*
X9710Y31278D01*
X9515Y31383D01*
X9290Y31458D01*
X9035Y31503D01*
X8750Y31518D01*
X11000Y33018D01*
X12768Y31518D01*
D02*
G37*
G36*
X165251Y27021D02*
X165282Y26527D01*
X165294Y26466D01*
X165308Y26417D01*
X165323Y26381D01*
X165340Y26357D01*
X163660D01*
X163677Y26381D01*
X163692Y26417D01*
X163706Y26466D01*
X163718Y26527D01*
X163727Y26601D01*
X163742Y26786D01*
X163750Y27157D01*
X165250D01*
X165251Y27021D01*
D02*
G37*
G36*
X160251D02*
X160282Y26527D01*
X160294Y26466D01*
X160308Y26417D01*
X160323Y26381D01*
X160340Y26357D01*
X158660D01*
X158677Y26381D01*
X158692Y26417D01*
X158706Y26466D01*
X158718Y26527D01*
X158728Y26601D01*
X158742Y26786D01*
X158750Y27157D01*
X160250D01*
X160251Y27021D01*
D02*
G37*
G36*
X155251D02*
X155282Y26527D01*
X155294Y26466D01*
X155308Y26417D01*
X155323Y26381D01*
X155340Y26357D01*
X153660D01*
X153677Y26381D01*
X153692Y26417D01*
X153706Y26466D01*
X153718Y26527D01*
X153727Y26601D01*
X153742Y26786D01*
X153750Y27157D01*
X155250D01*
X155251Y27021D01*
D02*
G37*
G36*
X21751D02*
X21782Y26527D01*
X21794Y26466D01*
X21808Y26417D01*
X21823Y26381D01*
X21840Y26357D01*
X20160D01*
X20177Y26381D01*
X20192Y26417D01*
X20206Y26466D01*
X20218Y26527D01*
X20227Y26601D01*
X20242Y26786D01*
X20250Y27157D01*
X21750D01*
X21751Y27021D01*
D02*
G37*
G36*
X16751D02*
X16782Y26527D01*
X16794Y26466D01*
X16808Y26417D01*
X16823Y26381D01*
X16840Y26357D01*
X15160D01*
X15177Y26381D01*
X15192Y26417D01*
X15206Y26466D01*
X15218Y26527D01*
X15227Y26601D01*
X15242Y26786D01*
X15250Y27157D01*
X16750D01*
X16751Y27021D01*
D02*
G37*
G36*
X11751D02*
X11782Y26527D01*
X11794Y26466D01*
X11808Y26417D01*
X11823Y26381D01*
X11840Y26357D01*
X10160D01*
X10177Y26381D01*
X10192Y26417D01*
X10206Y26466D01*
X10218Y26527D01*
X10227Y26601D01*
X10242Y26786D01*
X10250Y27157D01*
X11750D01*
X11751Y27021D01*
D02*
G37*
G36*
X171202Y26141D02*
X171106Y26044D01*
X170780Y25673D01*
X170745Y25622D01*
X170720Y25578D01*
X170705Y25541D01*
X170700Y25512D01*
X169512Y26700D01*
X169541Y26705D01*
X169578Y26720D01*
X169622Y26745D01*
X169673Y26780D01*
X169732Y26825D01*
X169873Y26945D01*
X170141Y27202D01*
X171202Y26141D01*
D02*
G37*
G36*
X27702D02*
X27606Y26044D01*
X27280Y25673D01*
X27245Y25622D01*
X27220Y25578D01*
X27205Y25541D01*
X27200Y25512D01*
X26012Y26700D01*
X26041Y26705D01*
X26077Y26720D01*
X26122Y26745D01*
X26173Y26780D01*
X26232Y26825D01*
X26373Y26945D01*
X26641Y27202D01*
X27702Y26141D01*
D02*
G37*
G36*
X195572Y26011D02*
X195476Y25914D01*
X195150Y25543D01*
X195115Y25492D01*
X195090Y25448D01*
X195075Y25411D01*
X195070Y25382D01*
X193882Y26570D01*
X193911Y26575D01*
X193948Y26590D01*
X193992Y26615D01*
X194043Y26650D01*
X194102Y26695D01*
X194243Y26815D01*
X194511Y27072D01*
X195572Y26011D01*
D02*
G37*
G36*
X52072D02*
X51976Y25914D01*
X51650Y25543D01*
X51615Y25492D01*
X51590Y25448D01*
X51575Y25411D01*
X51570Y25382D01*
X50382Y26570D01*
X50411Y26575D01*
X50448Y26590D01*
X50492Y26615D01*
X50543Y26650D01*
X50602Y26695D01*
X50743Y26815D01*
X51011Y27072D01*
X52072Y26011D01*
D02*
G37*
D12*
X19669Y50000D02*
D03*
X11795D02*
D03*
X3921D02*
D03*
X67374D02*
D03*
X59500D02*
D03*
X51626D02*
D03*
X115374D02*
D03*
X107500D02*
D03*
X99626D02*
D03*
X139248D02*
D03*
X131374D02*
D03*
X123500D02*
D03*
X43669D02*
D03*
X35795D02*
D03*
X27921D02*
D03*
X91374D02*
D03*
X83500D02*
D03*
X75626D02*
D03*
X163169D02*
D03*
X155295D02*
D03*
X147421D02*
D03*
X210874D02*
D03*
X203000D02*
D03*
X195126D02*
D03*
X258874D02*
D03*
X251000D02*
D03*
X243126D02*
D03*
X282748D02*
D03*
X274874D02*
D03*
X267000D02*
D03*
X187169D02*
D03*
X179295D02*
D03*
X171421D02*
D03*
X234874D02*
D03*
X227000D02*
D03*
X219126D02*
D03*
X19669Y106000D02*
D03*
X11795D02*
D03*
X3921D02*
D03*
X67374D02*
D03*
X59500D02*
D03*
X51626D02*
D03*
X115374D02*
D03*
X107500D02*
D03*
X99626D02*
D03*
X139248D02*
D03*
X131374D02*
D03*
X123500D02*
D03*
X43669D02*
D03*
X35795D02*
D03*
X27921D02*
D03*
X91374D02*
D03*
X83500D02*
D03*
X75626D02*
D03*
X163169D02*
D03*
X155295D02*
D03*
X147421D02*
D03*
X210874D02*
D03*
X203000D02*
D03*
X195126D02*
D03*
X258874D02*
D03*
X251000D02*
D03*
X243126D02*
D03*
X282748D02*
D03*
X274874D02*
D03*
X267000D02*
D03*
X187169D02*
D03*
X179295D02*
D03*
X171421D02*
D03*
X234874D02*
D03*
X227000D02*
D03*
X219126D02*
D03*
X19669Y162000D02*
D03*
X11795D02*
D03*
X3921D02*
D03*
X67374D02*
D03*
X59500D02*
D03*
X51626D02*
D03*
X115374D02*
D03*
X107500D02*
D03*
X99626D02*
D03*
X139248D02*
D03*
X131374D02*
D03*
X123500D02*
D03*
X43669D02*
D03*
X35795D02*
D03*
X27921D02*
D03*
X91374D02*
D03*
X83500D02*
D03*
X75626D02*
D03*
X163169D02*
D03*
X155295D02*
D03*
X147421D02*
D03*
X210874D02*
D03*
X203000D02*
D03*
X195126D02*
D03*
X258874D02*
D03*
X251000D02*
D03*
X243126D02*
D03*
X282748D02*
D03*
X274874D02*
D03*
X267000D02*
D03*
X187169D02*
D03*
X179295D02*
D03*
X171421D02*
D03*
X234874D02*
D03*
X227000D02*
D03*
X219126D02*
D03*
X19669Y218000D02*
D03*
X11795D02*
D03*
X3921D02*
D03*
X67374D02*
D03*
X59500D02*
D03*
X51626D02*
D03*
X115374D02*
D03*
X107500D02*
D03*
X99626D02*
D03*
X139248D02*
D03*
X131374D02*
D03*
X123500D02*
D03*
X43669D02*
D03*
X35795D02*
D03*
X27921D02*
D03*
X91374D02*
D03*
X83500D02*
D03*
X75626D02*
D03*
X163169D02*
D03*
X155295D02*
D03*
X147421D02*
D03*
X210874D02*
D03*
X203000D02*
D03*
X195126D02*
D03*
X258874D02*
D03*
X251000D02*
D03*
X243126D02*
D03*
X282748D02*
D03*
X274874D02*
D03*
X267000D02*
D03*
X187169D02*
D03*
X179295D02*
D03*
X171421D02*
D03*
X234874D02*
D03*
X227000D02*
D03*
X219126D02*
D03*
X19669Y274000D02*
D03*
X11795D02*
D03*
X3921D02*
D03*
X67374D02*
D03*
X59500D02*
D03*
X51626D02*
D03*
X115374D02*
D03*
X107500D02*
D03*
X99626D02*
D03*
X139248D02*
D03*
X131374D02*
D03*
X123500D02*
D03*
X43669D02*
D03*
X35795D02*
D03*
X27921D02*
D03*
X91374D02*
D03*
X83500D02*
D03*
X75626D02*
D03*
X163169D02*
D03*
X155295D02*
D03*
X147421D02*
D03*
X210874D02*
D03*
X203000D02*
D03*
X195126D02*
D03*
X258874D02*
D03*
X251000D02*
D03*
X243126D02*
D03*
X282748D02*
D03*
X274874D02*
D03*
X267000D02*
D03*
X187169D02*
D03*
X179295D02*
D03*
X171421D02*
D03*
X234874D02*
D03*
X227000D02*
D03*
X219126D02*
D03*
X19669Y330000D02*
D03*
X11795D02*
D03*
X3921D02*
D03*
X67374D02*
D03*
X59500D02*
D03*
X51626D02*
D03*
X115374D02*
D03*
X107500D02*
D03*
X99626D02*
D03*
X139248D02*
D03*
X131374D02*
D03*
X123500D02*
D03*
X43669D02*
D03*
X35795D02*
D03*
X27921D02*
D03*
X91374D02*
D03*
X83500D02*
D03*
X75626D02*
D03*
X163169D02*
D03*
X155295D02*
D03*
X147421D02*
D03*
X210874D02*
D03*
X203000D02*
D03*
X195126D02*
D03*
X258874D02*
D03*
X251000D02*
D03*
X243126D02*
D03*
X282748D02*
D03*
X274874D02*
D03*
X267000D02*
D03*
X187169D02*
D03*
X179295D02*
D03*
X171421D02*
D03*
X234874D02*
D03*
X227000D02*
D03*
X219126D02*
D03*
D19*
X122500Y49000D02*
X123500Y50000D01*
X122500Y35500D02*
Y49000D01*
X119000Y32000D02*
X122500Y35500D01*
X126500Y35000D02*
Y37500D01*
X121000Y29500D02*
X126500Y35000D01*
X78000Y29500D02*
X121000D01*
X76500Y28000D02*
X78000Y29500D01*
X53000Y28000D02*
X76500D01*
X50370Y25370D02*
X53000Y28000D01*
X26000Y25500D02*
X27500Y27000D01*
X21000Y25500D02*
Y27500D01*
X23000Y29500D01*
X16000Y28500D02*
X19500Y32000D01*
X16000Y25500D02*
Y28500D01*
X11000Y32268D02*
X12768D01*
X6110D02*
X11000D01*
Y25500D02*
Y32268D01*
X97000Y35000D02*
X99626Y37626D01*
X76000Y35000D02*
X97000D01*
X74000Y33000D02*
X76000Y35000D01*
X77000Y32000D02*
X119000D01*
X75500Y30500D02*
X77000Y32000D01*
X99626Y37626D02*
Y50000D01*
X35000Y30500D02*
X75500D01*
X31500Y27000D02*
X35000Y30500D01*
X27500Y27000D02*
X31500D01*
X33500Y33000D02*
X74000D01*
X30000Y29500D02*
X33500Y33000D01*
X23000Y29500D02*
X30000D01*
X75626Y38626D02*
Y50000D01*
X72500Y35500D02*
X75626Y38626D01*
X54752Y35500D02*
X72500D01*
X51626Y38626D02*
X54752Y35500D01*
X51626Y38626D02*
Y50000D01*
X48500Y35500D02*
X51626Y38626D01*
X32000Y35500D02*
X48500D01*
X28500Y32000D02*
X32000Y35500D01*
X19500Y32000D02*
X28500D01*
X3921Y34457D02*
X6110Y32268D01*
X12768D02*
X15000Y34500D01*
X23500D01*
X27921Y38921D01*
Y50000D01*
X3921Y34457D02*
Y50000D01*
X266000Y49000D02*
X267000Y50000D01*
X266000Y35500D02*
Y49000D01*
X262500Y32000D02*
X266000Y35500D01*
X270000Y35000D02*
Y37500D01*
X264500Y29500D02*
X270000Y35000D01*
X221500Y29500D02*
X264500D01*
X220000Y28000D02*
X221500Y29500D01*
X196500Y28000D02*
X220000D01*
X193870Y25370D02*
X196500Y28000D01*
X169500Y25500D02*
X171000Y27000D01*
X164500Y25500D02*
Y27500D01*
X166500Y29500D01*
X159500Y28500D02*
X163000Y32000D01*
X159500Y25500D02*
Y28500D01*
X154500Y32268D02*
X156268D01*
X149610D02*
X154500D01*
Y25500D02*
Y32268D01*
X240500Y35000D02*
X243126Y37626D01*
X219500Y35000D02*
X240500D01*
X217500Y33000D02*
X219500Y35000D01*
X220500Y32000D02*
X262500D01*
X219000Y30500D02*
X220500Y32000D01*
X243126Y37626D02*
Y50000D01*
X178500Y30500D02*
X219000D01*
X175000Y27000D02*
X178500Y30500D01*
X171000Y27000D02*
X175000D01*
X177000Y33000D02*
X217500D01*
X173500Y29500D02*
X177000Y33000D01*
X166500Y29500D02*
X173500D01*
X219126Y38626D02*
Y50000D01*
X216000Y35500D02*
X219126Y38626D01*
X198252Y35500D02*
X216000D01*
X195126Y38626D02*
X198252Y35500D01*
X195126Y38626D02*
Y50000D01*
X192000Y35500D02*
X195126Y38626D01*
X175500Y35500D02*
X192000D01*
X172000Y32000D02*
X175500Y35500D01*
X163000Y32000D02*
X172000D01*
X147421Y34457D02*
X149610Y32268D01*
X156268D02*
X158500Y34500D01*
X167000D01*
X171421Y38921D01*
Y50000D01*
X147421Y34457D02*
Y50000D01*
X122500Y105000D02*
X123500Y106000D01*
X122500Y91500D02*
Y105000D01*
X119000Y88000D02*
X122500Y91500D01*
X126500Y91000D02*
Y93500D01*
X121000Y85500D02*
X126500Y91000D01*
X78000Y85500D02*
X121000D01*
X76500Y84000D02*
X78000Y85500D01*
X53000Y84000D02*
X76500D01*
X50370Y81370D02*
X53000Y84000D01*
X26000Y81500D02*
X27500Y83000D01*
X21000Y81500D02*
Y83500D01*
X23000Y85500D01*
X16000Y84500D02*
X19500Y88000D01*
X16000Y81500D02*
Y84500D01*
X11000Y88268D02*
X12768D01*
X6110D02*
X11000D01*
Y81500D02*
Y88268D01*
X97000Y91000D02*
X99626Y93626D01*
X76000Y91000D02*
X97000D01*
X74000Y89000D02*
X76000Y91000D01*
X77000Y88000D02*
X119000D01*
X75500Y86500D02*
X77000Y88000D01*
X99626Y93626D02*
Y106000D01*
X35000Y86500D02*
X75500D01*
X31500Y83000D02*
X35000Y86500D01*
X27500Y83000D02*
X31500D01*
X33500Y89000D02*
X74000D01*
X30000Y85500D02*
X33500Y89000D01*
X23000Y85500D02*
X30000D01*
X75626Y94626D02*
Y106000D01*
X72500Y91500D02*
X75626Y94626D01*
X54752Y91500D02*
X72500D01*
X51626Y94626D02*
X54752Y91500D01*
X51626Y94626D02*
Y106000D01*
X48500Y91500D02*
X51626Y94626D01*
X32000Y91500D02*
X48500D01*
X28500Y88000D02*
X32000Y91500D01*
X19500Y88000D02*
X28500D01*
X3921Y90457D02*
X6110Y88268D01*
X12768D02*
X15000Y90500D01*
X23500D01*
X27921Y94921D01*
Y106000D01*
X3921Y90457D02*
Y106000D01*
X266000Y105000D02*
X267000Y106000D01*
X266000Y91500D02*
Y105000D01*
X262500Y88000D02*
X266000Y91500D01*
X270000Y91000D02*
Y93500D01*
X264500Y85500D02*
X270000Y91000D01*
X221500Y85500D02*
X264500D01*
X220000Y84000D02*
X221500Y85500D01*
X196500Y84000D02*
X220000D01*
X193870Y81370D02*
X196500Y84000D01*
X169500Y81500D02*
X171000Y83000D01*
X164500Y81500D02*
Y83500D01*
X166500Y85500D01*
X159500Y84500D02*
X163000Y88000D01*
X159500Y81500D02*
Y84500D01*
X154500Y88268D02*
X156268D01*
X149610D02*
X154500D01*
Y81500D02*
Y88268D01*
X240500Y91000D02*
X243126Y93626D01*
X219500Y91000D02*
X240500D01*
X217500Y89000D02*
X219500Y91000D01*
X220500Y88000D02*
X262500D01*
X219000Y86500D02*
X220500Y88000D01*
X243126Y93626D02*
Y106000D01*
X178500Y86500D02*
X219000D01*
X175000Y83000D02*
X178500Y86500D01*
X171000Y83000D02*
X175000D01*
X177000Y89000D02*
X217500D01*
X173500Y85500D02*
X177000Y89000D01*
X166500Y85500D02*
X173500D01*
X219126Y94626D02*
Y106000D01*
X216000Y91500D02*
X219126Y94626D01*
X198252Y91500D02*
X216000D01*
X195126Y94626D02*
X198252Y91500D01*
X195126Y94626D02*
Y106000D01*
X192000Y91500D02*
X195126Y94626D01*
X175500Y91500D02*
X192000D01*
X172000Y88000D02*
X175500Y91500D01*
X163000Y88000D02*
X172000D01*
X147421Y90457D02*
X149610Y88268D01*
X156268D02*
X158500Y90500D01*
X167000D01*
X171421Y94921D01*
Y106000D01*
X147421Y90457D02*
Y106000D01*
X122500Y161000D02*
X123500Y162000D01*
X122500Y147500D02*
Y161000D01*
X119000Y144000D02*
X122500Y147500D01*
X126500Y147000D02*
Y149500D01*
X121000Y141500D02*
X126500Y147000D01*
X78000Y141500D02*
X121000D01*
X76500Y140000D02*
X78000Y141500D01*
X53000Y140000D02*
X76500D01*
X50370Y137370D02*
X53000Y140000D01*
X26000Y137500D02*
X27500Y139000D01*
X21000Y137500D02*
Y139500D01*
X23000Y141500D01*
X16000Y140500D02*
X19500Y144000D01*
X16000Y137500D02*
Y140500D01*
X11000Y144268D02*
X12768D01*
X6110D02*
X11000D01*
Y137500D02*
Y144268D01*
X97000Y147000D02*
X99626Y149626D01*
X76000Y147000D02*
X97000D01*
X74000Y145000D02*
X76000Y147000D01*
X77000Y144000D02*
X119000D01*
X75500Y142500D02*
X77000Y144000D01*
X99626Y149626D02*
Y162000D01*
X35000Y142500D02*
X75500D01*
X31500Y139000D02*
X35000Y142500D01*
X27500Y139000D02*
X31500D01*
X33500Y145000D02*
X74000D01*
X30000Y141500D02*
X33500Y145000D01*
X23000Y141500D02*
X30000D01*
X75626Y150626D02*
Y162000D01*
X72500Y147500D02*
X75626Y150626D01*
X54752Y147500D02*
X72500D01*
X51626Y150626D02*
X54752Y147500D01*
X51626Y150626D02*
Y162000D01*
X48500Y147500D02*
X51626Y150626D01*
X32000Y147500D02*
X48500D01*
X28500Y144000D02*
X32000Y147500D01*
X19500Y144000D02*
X28500D01*
X3921Y146457D02*
X6110Y144268D01*
X12768D02*
X15000Y146500D01*
X23500D01*
X27921Y150921D01*
Y162000D01*
X3921Y146457D02*
Y162000D01*
X266000Y161000D02*
X267000Y162000D01*
X266000Y147500D02*
Y161000D01*
X262500Y144000D02*
X266000Y147500D01*
X270000Y147000D02*
Y149500D01*
X264500Y141500D02*
X270000Y147000D01*
X221500Y141500D02*
X264500D01*
X220000Y140000D02*
X221500Y141500D01*
X196500Y140000D02*
X220000D01*
X193870Y137370D02*
X196500Y140000D01*
X169500Y137500D02*
X171000Y139000D01*
X164500Y137500D02*
Y139500D01*
X166500Y141500D01*
X159500Y140500D02*
X163000Y144000D01*
X159500Y137500D02*
Y140500D01*
X154500Y144268D02*
X156268D01*
X149610D02*
X154500D01*
Y137500D02*
Y144268D01*
X240500Y147000D02*
X243126Y149626D01*
X219500Y147000D02*
X240500D01*
X217500Y145000D02*
X219500Y147000D01*
X220500Y144000D02*
X262500D01*
X219000Y142500D02*
X220500Y144000D01*
X243126Y149626D02*
Y162000D01*
X178500Y142500D02*
X219000D01*
X175000Y139000D02*
X178500Y142500D01*
X171000Y139000D02*
X175000D01*
X177000Y145000D02*
X217500D01*
X173500Y141500D02*
X177000Y145000D01*
X166500Y141500D02*
X173500D01*
X219126Y150626D02*
Y162000D01*
X216000Y147500D02*
X219126Y150626D01*
X198252Y147500D02*
X216000D01*
X195126Y150626D02*
X198252Y147500D01*
X195126Y150626D02*
Y162000D01*
X192000Y147500D02*
X195126Y150626D01*
X175500Y147500D02*
X192000D01*
X172000Y144000D02*
X175500Y147500D01*
X163000Y144000D02*
X172000D01*
X147421Y146457D02*
X149610Y144268D01*
X156268D02*
X158500Y146500D01*
X167000D01*
X171421Y150921D01*
Y162000D01*
X147421Y146457D02*
Y162000D01*
X122500Y217000D02*
X123500Y218000D01*
X122500Y203500D02*
Y217000D01*
X119000Y200000D02*
X122500Y203500D01*
X126500Y203000D02*
Y205500D01*
X121000Y197500D02*
X126500Y203000D01*
X78000Y197500D02*
X121000D01*
X76500Y196000D02*
X78000Y197500D01*
X53000Y196000D02*
X76500D01*
X50370Y193370D02*
X53000Y196000D01*
X26000Y193500D02*
X27500Y195000D01*
X21000Y193500D02*
Y195500D01*
X23000Y197500D01*
X16000Y196500D02*
X19500Y200000D01*
X16000Y193500D02*
Y196500D01*
X11000Y200268D02*
X12768D01*
X6110D02*
X11000D01*
Y193500D02*
Y200268D01*
X97000Y203000D02*
X99626Y205626D01*
X76000Y203000D02*
X97000D01*
X74000Y201000D02*
X76000Y203000D01*
X77000Y200000D02*
X119000D01*
X75500Y198500D02*
X77000Y200000D01*
X99626Y205626D02*
Y218000D01*
X35000Y198500D02*
X75500D01*
X31500Y195000D02*
X35000Y198500D01*
X27500Y195000D02*
X31500D01*
X33500Y201000D02*
X74000D01*
X30000Y197500D02*
X33500Y201000D01*
X23000Y197500D02*
X30000D01*
X75626Y206626D02*
Y218000D01*
X72500Y203500D02*
X75626Y206626D01*
X54752Y203500D02*
X72500D01*
X51626Y206626D02*
X54752Y203500D01*
X51626Y206626D02*
Y218000D01*
X48500Y203500D02*
X51626Y206626D01*
X32000Y203500D02*
X48500D01*
X28500Y200000D02*
X32000Y203500D01*
X19500Y200000D02*
X28500D01*
X3921Y202457D02*
X6110Y200268D01*
X12768D02*
X15000Y202500D01*
X23500D01*
X27921Y206921D01*
Y218000D01*
X3921Y202457D02*
Y218000D01*
X266000Y217000D02*
X267000Y218000D01*
X266000Y203500D02*
Y217000D01*
X262500Y200000D02*
X266000Y203500D01*
X270000Y203000D02*
Y205500D01*
X264500Y197500D02*
X270000Y203000D01*
X221500Y197500D02*
X264500D01*
X220000Y196000D02*
X221500Y197500D01*
X196500Y196000D02*
X220000D01*
X193870Y193370D02*
X196500Y196000D01*
X169500Y193500D02*
X171000Y195000D01*
X164500Y193500D02*
Y195500D01*
X166500Y197500D01*
X159500Y196500D02*
X163000Y200000D01*
X159500Y193500D02*
Y196500D01*
X154500Y200268D02*
X156268D01*
X149610D02*
X154500D01*
Y193500D02*
Y200268D01*
X240500Y203000D02*
X243126Y205626D01*
X219500Y203000D02*
X240500D01*
X217500Y201000D02*
X219500Y203000D01*
X220500Y200000D02*
X262500D01*
X219000Y198500D02*
X220500Y200000D01*
X243126Y205626D02*
Y218000D01*
X178500Y198500D02*
X219000D01*
X175000Y195000D02*
X178500Y198500D01*
X171000Y195000D02*
X175000D01*
X177000Y201000D02*
X217500D01*
X173500Y197500D02*
X177000Y201000D01*
X166500Y197500D02*
X173500D01*
X219126Y206626D02*
Y218000D01*
X216000Y203500D02*
X219126Y206626D01*
X198252Y203500D02*
X216000D01*
X195126Y206626D02*
X198252Y203500D01*
X195126Y206626D02*
Y218000D01*
X192000Y203500D02*
X195126Y206626D01*
X175500Y203500D02*
X192000D01*
X172000Y200000D02*
X175500Y203500D01*
X163000Y200000D02*
X172000D01*
X147421Y202457D02*
X149610Y200268D01*
X156268D02*
X158500Y202500D01*
X167000D01*
X171421Y206921D01*
Y218000D01*
X147421Y202457D02*
Y218000D01*
X122500Y273000D02*
X123500Y274000D01*
X122500Y259500D02*
Y273000D01*
X119000Y256000D02*
X122500Y259500D01*
X126500Y259000D02*
Y261500D01*
X121000Y253500D02*
X126500Y259000D01*
X78000Y253500D02*
X121000D01*
X76500Y252000D02*
X78000Y253500D01*
X53000Y252000D02*
X76500D01*
X50370Y249370D02*
X53000Y252000D01*
X26000Y249500D02*
X27500Y251000D01*
X21000Y249500D02*
Y251500D01*
X23000Y253500D01*
X16000Y252500D02*
X19500Y256000D01*
X16000Y249500D02*
Y252500D01*
X11000Y256268D02*
X12768D01*
X6110D02*
X11000D01*
Y249500D02*
Y256268D01*
X97000Y259000D02*
X99626Y261626D01*
X76000Y259000D02*
X97000D01*
X74000Y257000D02*
X76000Y259000D01*
X77000Y256000D02*
X119000D01*
X75500Y254500D02*
X77000Y256000D01*
X99626Y261626D02*
Y274000D01*
X35000Y254500D02*
X75500D01*
X31500Y251000D02*
X35000Y254500D01*
X27500Y251000D02*
X31500D01*
X33500Y257000D02*
X74000D01*
X30000Y253500D02*
X33500Y257000D01*
X23000Y253500D02*
X30000D01*
X75626Y262626D02*
Y274000D01*
X72500Y259500D02*
X75626Y262626D01*
X54752Y259500D02*
X72500D01*
X51626Y262626D02*
X54752Y259500D01*
X51626Y262626D02*
Y274000D01*
X48500Y259500D02*
X51626Y262626D01*
X32000Y259500D02*
X48500D01*
X28500Y256000D02*
X32000Y259500D01*
X19500Y256000D02*
X28500D01*
X3921Y258457D02*
X6110Y256268D01*
X12768D02*
X15000Y258500D01*
X23500D01*
X27921Y262921D01*
Y274000D01*
X3921Y258457D02*
Y274000D01*
X266000Y273000D02*
X267000Y274000D01*
X266000Y259500D02*
Y273000D01*
X262500Y256000D02*
X266000Y259500D01*
X270000Y259000D02*
Y261500D01*
X264500Y253500D02*
X270000Y259000D01*
X221500Y253500D02*
X264500D01*
X220000Y252000D02*
X221500Y253500D01*
X196500Y252000D02*
X220000D01*
X193870Y249370D02*
X196500Y252000D01*
X169500Y249500D02*
X171000Y251000D01*
X164500Y249500D02*
Y251500D01*
X166500Y253500D01*
X159500Y252500D02*
X163000Y256000D01*
X159500Y249500D02*
Y252500D01*
X154500Y256268D02*
X156268D01*
X149610D02*
X154500D01*
Y249500D02*
Y256268D01*
X240500Y259000D02*
X243126Y261626D01*
X219500Y259000D02*
X240500D01*
X217500Y257000D02*
X219500Y259000D01*
X220500Y256000D02*
X262500D01*
X219000Y254500D02*
X220500Y256000D01*
X243126Y261626D02*
Y274000D01*
X178500Y254500D02*
X219000D01*
X175000Y251000D02*
X178500Y254500D01*
X171000Y251000D02*
X175000D01*
X177000Y257000D02*
X217500D01*
X173500Y253500D02*
X177000Y257000D01*
X166500Y253500D02*
X173500D01*
X219126Y262626D02*
Y274000D01*
X216000Y259500D02*
X219126Y262626D01*
X198252Y259500D02*
X216000D01*
X195126Y262626D02*
X198252Y259500D01*
X195126Y262626D02*
Y274000D01*
X192000Y259500D02*
X195126Y262626D01*
X175500Y259500D02*
X192000D01*
X172000Y256000D02*
X175500Y259500D01*
X163000Y256000D02*
X172000D01*
X147421Y258457D02*
X149610Y256268D01*
X156268D02*
X158500Y258500D01*
X167000D01*
X171421Y262921D01*
Y274000D01*
X147421Y258457D02*
Y274000D01*
X122500Y329000D02*
X123500Y330000D01*
X122500Y315500D02*
Y329000D01*
X119000Y312000D02*
X122500Y315500D01*
X126500Y315000D02*
Y317500D01*
X121000Y309500D02*
X126500Y315000D01*
X78000Y309500D02*
X121000D01*
X76500Y308000D02*
X78000Y309500D01*
X53000Y308000D02*
X76500D01*
X50370Y305370D02*
X53000Y308000D01*
X26000Y305500D02*
X27500Y307000D01*
X21000Y305500D02*
Y307500D01*
X23000Y309500D01*
X16000Y308500D02*
X19500Y312000D01*
X16000Y305500D02*
Y308500D01*
X11000Y312268D02*
X12768D01*
X6110D02*
X11000D01*
Y305500D02*
Y312268D01*
X97000Y315000D02*
X99626Y317626D01*
X76000Y315000D02*
X97000D01*
X74000Y313000D02*
X76000Y315000D01*
X77000Y312000D02*
X119000D01*
X75500Y310500D02*
X77000Y312000D01*
X99626Y317626D02*
Y330000D01*
X35000Y310500D02*
X75500D01*
X31500Y307000D02*
X35000Y310500D01*
X27500Y307000D02*
X31500D01*
X33500Y313000D02*
X74000D01*
X30000Y309500D02*
X33500Y313000D01*
X23000Y309500D02*
X30000D01*
X75626Y318626D02*
Y330000D01*
X72500Y315500D02*
X75626Y318626D01*
X54752Y315500D02*
X72500D01*
X51626Y318626D02*
X54752Y315500D01*
X51626Y318626D02*
Y330000D01*
X48500Y315500D02*
X51626Y318626D01*
X32000Y315500D02*
X48500D01*
X28500Y312000D02*
X32000Y315500D01*
X19500Y312000D02*
X28500D01*
X3921Y314457D02*
X6110Y312268D01*
X12768D02*
X15000Y314500D01*
X23500D01*
X27921Y318921D01*
Y330000D01*
X3921Y314457D02*
Y330000D01*
X266000Y329000D02*
X267000Y330000D01*
X266000Y315500D02*
Y329000D01*
X262500Y312000D02*
X266000Y315500D01*
X270000Y315000D02*
Y317500D01*
X264500Y309500D02*
X270000Y315000D01*
X221500Y309500D02*
X264500D01*
X220000Y308000D02*
X221500Y309500D01*
X196500Y308000D02*
X220000D01*
X193870Y305370D02*
X196500Y308000D01*
X169500Y305500D02*
X171000Y307000D01*
X164500Y305500D02*
Y307500D01*
X166500Y309500D01*
X159500Y308500D02*
X163000Y312000D01*
X159500Y305500D02*
Y308500D01*
X154500Y312268D02*
X156268D01*
X149610D02*
X154500D01*
Y305500D02*
Y312268D01*
X240500Y315000D02*
X243126Y317626D01*
X219500Y315000D02*
X240500D01*
X217500Y313000D02*
X219500Y315000D01*
X220500Y312000D02*
X262500D01*
X219000Y310500D02*
X220500Y312000D01*
X243126Y317626D02*
Y330000D01*
X178500Y310500D02*
X219000D01*
X175000Y307000D02*
X178500Y310500D01*
X171000Y307000D02*
X175000D01*
X177000Y313000D02*
X217500D01*
X173500Y309500D02*
X177000Y313000D01*
X166500Y309500D02*
X173500D01*
X219126Y318626D02*
Y330000D01*
X216000Y315500D02*
X219126Y318626D01*
X198252Y315500D02*
X216000D01*
X195126Y318626D02*
X198252Y315500D01*
X195126Y318626D02*
Y330000D01*
X192000Y315500D02*
X195126Y318626D01*
X175500Y315500D02*
X192000D01*
X172000Y312000D02*
X175500Y315500D01*
X163000Y312000D02*
X172000D01*
X147421Y314457D02*
X149610Y312268D01*
X156268D02*
X158500Y314500D01*
X167000D01*
X171421Y318921D01*
Y330000D01*
X147421Y314457D02*
Y330000D01*
D20*
X91750Y42750D02*
D03*
X235250D02*
D03*
X91750Y98750D02*
D03*
X235250D02*
D03*
X91750Y154750D02*
D03*
X235250D02*
D03*
X91750Y210750D02*
D03*
X235250D02*
D03*
X91750Y266750D02*
D03*
X235250D02*
D03*
X91750Y322750D02*
D03*
X235250D02*
D03*
D23*
X44000Y42250D02*
D03*
X20000D02*
D03*
X187500D02*
D03*
X163500D02*
D03*
X44000Y98250D02*
D03*
X20000D02*
D03*
X187500D02*
D03*
X163500D02*
D03*
X44000Y154250D02*
D03*
X20000D02*
D03*
X187500D02*
D03*
X163500D02*
D03*
X44000Y210250D02*
D03*
X20000D02*
D03*
X187500D02*
D03*
X163500D02*
D03*
X44000Y266250D02*
D03*
X20000D02*
D03*
X187500D02*
D03*
X163500D02*
D03*
X44000Y322250D02*
D03*
X20000D02*
D03*
X187500D02*
D03*
X163500D02*
D03*
D26*
X-10000Y22500D02*
D03*
Y310000D02*
D03*
X297500D02*
D03*
Y22500D02*
D03*
D27*
X126500Y37500D02*
D03*
X50370Y25370D02*
D03*
X114000Y35500D02*
D03*
Y38000D02*
D03*
Y40500D02*
D03*
Y43000D02*
D03*
X109000Y40000D02*
D03*
Y37500D02*
D03*
X107000Y38500D02*
D03*
Y36000D02*
D03*
X95500Y42000D02*
D03*
X93500Y40000D02*
D03*
Y44000D02*
D03*
X130000Y33000D02*
D03*
Y35500D02*
D03*
X132500Y33000D02*
D03*
Y35500D02*
D03*
X135000Y33000D02*
D03*
Y35500D02*
D03*
X140500Y40000D02*
D03*
X138000D02*
D03*
X137500Y35500D02*
D03*
Y33000D02*
D03*
X85500Y40000D02*
D03*
X82000D02*
D03*
X85500Y43000D02*
D03*
X82000D02*
D03*
X140500Y43500D02*
D03*
X138000D02*
D03*
X132500Y40000D02*
D03*
X130000D02*
D03*
X132500Y43500D02*
D03*
X130000D02*
D03*
X58500D02*
D03*
X61500D02*
D03*
Y39000D02*
D03*
X58500D02*
D03*
X66500Y43500D02*
D03*
X69500D02*
D03*
X66500Y39500D02*
D03*
X69500D02*
D03*
X34500Y43500D02*
D03*
X37500D02*
D03*
Y39000D02*
D03*
X34500D02*
D03*
X42500Y43500D02*
D03*
X45500D02*
D03*
X42500Y39500D02*
D03*
X45500D02*
D03*
X21500D02*
D03*
X18500D02*
D03*
X21500Y43500D02*
D03*
X18500D02*
D03*
X10500Y39000D02*
D03*
X13500D02*
D03*
Y43500D02*
D03*
X10500D02*
D03*
X113000Y11000D02*
D03*
X108500D02*
D03*
X114500Y14500D02*
D03*
X111000D02*
D03*
X107500D02*
D03*
X114500Y17500D02*
D03*
X111000D02*
D03*
X107500D02*
D03*
X91050Y3950D02*
D03*
X16000Y25500D02*
D03*
X26000D02*
D03*
X21000D02*
D03*
X11000D02*
D03*
X270000Y37500D02*
D03*
X193870Y25370D02*
D03*
X257500Y35500D02*
D03*
Y38000D02*
D03*
Y40500D02*
D03*
Y43000D02*
D03*
X252500Y40000D02*
D03*
Y37500D02*
D03*
X250500Y38500D02*
D03*
Y36000D02*
D03*
X239000Y42000D02*
D03*
X237000Y40000D02*
D03*
Y44000D02*
D03*
X273500Y33000D02*
D03*
Y35500D02*
D03*
X276000Y33000D02*
D03*
Y35500D02*
D03*
X278500Y33000D02*
D03*
Y35500D02*
D03*
X284000Y40000D02*
D03*
X281500D02*
D03*
X281000Y35500D02*
D03*
Y33000D02*
D03*
X229000Y40000D02*
D03*
X225500D02*
D03*
X229000Y43000D02*
D03*
X225500D02*
D03*
X284000Y43500D02*
D03*
X281500D02*
D03*
X276000Y40000D02*
D03*
X273500D02*
D03*
X276000Y43500D02*
D03*
X273500D02*
D03*
X202000D02*
D03*
X205000D02*
D03*
Y39000D02*
D03*
X202000D02*
D03*
X210000Y43500D02*
D03*
X213000D02*
D03*
X210000Y39500D02*
D03*
X213000D02*
D03*
X178000Y43500D02*
D03*
X181000D02*
D03*
Y39000D02*
D03*
X178000D02*
D03*
X186000Y43500D02*
D03*
X189000D02*
D03*
X186000Y39500D02*
D03*
X189000D02*
D03*
X165000D02*
D03*
X162000D02*
D03*
X165000Y43500D02*
D03*
X162000D02*
D03*
X154000Y39000D02*
D03*
X157000D02*
D03*
Y43500D02*
D03*
X154000D02*
D03*
X256500Y11000D02*
D03*
X252000D02*
D03*
X258000Y14500D02*
D03*
X254500D02*
D03*
X251000D02*
D03*
X258000Y17500D02*
D03*
X254500D02*
D03*
X251000D02*
D03*
X234550Y3950D02*
D03*
X159500Y25500D02*
D03*
X169500D02*
D03*
X164500D02*
D03*
X154500D02*
D03*
X126500Y93500D02*
D03*
X50370Y81370D02*
D03*
X114000Y91500D02*
D03*
Y94000D02*
D03*
Y96500D02*
D03*
Y99000D02*
D03*
X109000Y96000D02*
D03*
Y93500D02*
D03*
X107000Y94500D02*
D03*
Y92000D02*
D03*
X95500Y98000D02*
D03*
X93500Y96000D02*
D03*
Y100000D02*
D03*
X130000Y89000D02*
D03*
Y91500D02*
D03*
X132500Y89000D02*
D03*
Y91500D02*
D03*
X135000Y89000D02*
D03*
Y91500D02*
D03*
X140500Y96000D02*
D03*
X138000D02*
D03*
X137500Y91500D02*
D03*
Y89000D02*
D03*
X85500Y96000D02*
D03*
X82000D02*
D03*
X85500Y99000D02*
D03*
X82000D02*
D03*
X140500Y99500D02*
D03*
X138000D02*
D03*
X132500Y96000D02*
D03*
X130000D02*
D03*
X132500Y99500D02*
D03*
X130000D02*
D03*
X58500D02*
D03*
X61500D02*
D03*
Y95000D02*
D03*
X58500D02*
D03*
X66500Y99500D02*
D03*
X69500D02*
D03*
X66500Y95500D02*
D03*
X69500D02*
D03*
X34500Y99500D02*
D03*
X37500D02*
D03*
Y95000D02*
D03*
X34500D02*
D03*
X42500Y99500D02*
D03*
X45500D02*
D03*
X42500Y95500D02*
D03*
X45500D02*
D03*
X21500D02*
D03*
X18500D02*
D03*
X21500Y99500D02*
D03*
X18500D02*
D03*
X10500Y95000D02*
D03*
X13500D02*
D03*
Y99500D02*
D03*
X10500D02*
D03*
X113000Y67000D02*
D03*
X108500D02*
D03*
X114500Y70500D02*
D03*
X111000D02*
D03*
X107500D02*
D03*
X114500Y73500D02*
D03*
X111000D02*
D03*
X107500D02*
D03*
X91050Y59950D02*
D03*
X16000Y81500D02*
D03*
X26000D02*
D03*
X21000D02*
D03*
X11000D02*
D03*
X270000Y93500D02*
D03*
X193870Y81370D02*
D03*
X257500Y91500D02*
D03*
Y94000D02*
D03*
Y96500D02*
D03*
Y99000D02*
D03*
X252500Y96000D02*
D03*
Y93500D02*
D03*
X250500Y94500D02*
D03*
Y92000D02*
D03*
X239000Y98000D02*
D03*
X237000Y96000D02*
D03*
Y100000D02*
D03*
X273500Y89000D02*
D03*
Y91500D02*
D03*
X276000Y89000D02*
D03*
Y91500D02*
D03*
X278500Y89000D02*
D03*
Y91500D02*
D03*
X284000Y96000D02*
D03*
X281500D02*
D03*
X281000Y91500D02*
D03*
Y89000D02*
D03*
X229000Y96000D02*
D03*
X225500D02*
D03*
X229000Y99000D02*
D03*
X225500D02*
D03*
X284000Y99500D02*
D03*
X281500D02*
D03*
X276000Y96000D02*
D03*
X273500D02*
D03*
X276000Y99500D02*
D03*
X273500D02*
D03*
X202000D02*
D03*
X205000D02*
D03*
Y95000D02*
D03*
X202000D02*
D03*
X210000Y99500D02*
D03*
X213000D02*
D03*
X210000Y95500D02*
D03*
X213000D02*
D03*
X178000Y99500D02*
D03*
X181000D02*
D03*
Y95000D02*
D03*
X178000D02*
D03*
X186000Y99500D02*
D03*
X189000D02*
D03*
X186000Y95500D02*
D03*
X189000D02*
D03*
X165000D02*
D03*
X162000D02*
D03*
X165000Y99500D02*
D03*
X162000D02*
D03*
X154000Y95000D02*
D03*
X157000D02*
D03*
Y99500D02*
D03*
X154000D02*
D03*
X256500Y67000D02*
D03*
X252000D02*
D03*
X258000Y70500D02*
D03*
X254500D02*
D03*
X251000D02*
D03*
X258000Y73500D02*
D03*
X254500D02*
D03*
X251000D02*
D03*
X234550Y59950D02*
D03*
X159500Y81500D02*
D03*
X169500D02*
D03*
X164500D02*
D03*
X154500D02*
D03*
X126500Y149500D02*
D03*
X50370Y137370D02*
D03*
X114000Y147500D02*
D03*
Y150000D02*
D03*
Y152500D02*
D03*
Y155000D02*
D03*
X109000Y152000D02*
D03*
Y149500D02*
D03*
X107000Y150500D02*
D03*
Y148000D02*
D03*
X95500Y154000D02*
D03*
X93500Y152000D02*
D03*
Y156000D02*
D03*
X130000Y145000D02*
D03*
Y147500D02*
D03*
X132500Y145000D02*
D03*
Y147500D02*
D03*
X135000Y145000D02*
D03*
Y147500D02*
D03*
X140500Y152000D02*
D03*
X138000D02*
D03*
X137500Y147500D02*
D03*
Y145000D02*
D03*
X85500Y152000D02*
D03*
X82000D02*
D03*
X85500Y155000D02*
D03*
X82000D02*
D03*
X140500Y155500D02*
D03*
X138000D02*
D03*
X132500Y152000D02*
D03*
X130000D02*
D03*
X132500Y155500D02*
D03*
X130000D02*
D03*
X58500D02*
D03*
X61500D02*
D03*
Y151000D02*
D03*
X58500D02*
D03*
X66500Y155500D02*
D03*
X69500D02*
D03*
X66500Y151500D02*
D03*
X69500D02*
D03*
X34500Y155500D02*
D03*
X37500D02*
D03*
Y151000D02*
D03*
X34500D02*
D03*
X42500Y155500D02*
D03*
X45500D02*
D03*
X42500Y151500D02*
D03*
X45500D02*
D03*
X21500D02*
D03*
X18500D02*
D03*
X21500Y155500D02*
D03*
X18500D02*
D03*
X10500Y151000D02*
D03*
X13500D02*
D03*
Y155500D02*
D03*
X10500D02*
D03*
X113000Y123000D02*
D03*
X108500D02*
D03*
X114500Y126500D02*
D03*
X111000D02*
D03*
X107500D02*
D03*
X114500Y129500D02*
D03*
X111000D02*
D03*
X107500D02*
D03*
X91050Y115950D02*
D03*
X16000Y137500D02*
D03*
X26000D02*
D03*
X21000D02*
D03*
X11000D02*
D03*
X270000Y149500D02*
D03*
X193870Y137370D02*
D03*
X257500Y147500D02*
D03*
Y150000D02*
D03*
Y152500D02*
D03*
Y155000D02*
D03*
X252500Y152000D02*
D03*
Y149500D02*
D03*
X250500Y150500D02*
D03*
Y148000D02*
D03*
X239000Y154000D02*
D03*
X237000Y152000D02*
D03*
Y156000D02*
D03*
X273500Y145000D02*
D03*
Y147500D02*
D03*
X276000Y145000D02*
D03*
Y147500D02*
D03*
X278500Y145000D02*
D03*
Y147500D02*
D03*
X284000Y152000D02*
D03*
X281500D02*
D03*
X281000Y147500D02*
D03*
Y145000D02*
D03*
X229000Y152000D02*
D03*
X225500D02*
D03*
X229000Y155000D02*
D03*
X225500D02*
D03*
X284000Y155500D02*
D03*
X281500D02*
D03*
X276000Y152000D02*
D03*
X273500D02*
D03*
X276000Y155500D02*
D03*
X273500D02*
D03*
X202000D02*
D03*
X205000D02*
D03*
Y151000D02*
D03*
X202000D02*
D03*
X210000Y155500D02*
D03*
X213000D02*
D03*
X210000Y151500D02*
D03*
X213000D02*
D03*
X178000Y155500D02*
D03*
X181000D02*
D03*
Y151000D02*
D03*
X178000D02*
D03*
X186000Y155500D02*
D03*
X189000D02*
D03*
X186000Y151500D02*
D03*
X189000D02*
D03*
X165000D02*
D03*
X162000D02*
D03*
X165000Y155500D02*
D03*
X162000D02*
D03*
X154000Y151000D02*
D03*
X157000D02*
D03*
Y155500D02*
D03*
X154000D02*
D03*
X256500Y123000D02*
D03*
X252000D02*
D03*
X258000Y126500D02*
D03*
X254500D02*
D03*
X251000D02*
D03*
X258000Y129500D02*
D03*
X254500D02*
D03*
X251000D02*
D03*
X234550Y115950D02*
D03*
X159500Y137500D02*
D03*
X169500D02*
D03*
X164500D02*
D03*
X154500D02*
D03*
X126500Y205500D02*
D03*
X50370Y193370D02*
D03*
X114000Y203500D02*
D03*
Y206000D02*
D03*
Y208500D02*
D03*
Y211000D02*
D03*
X109000Y208000D02*
D03*
Y205500D02*
D03*
X107000Y206500D02*
D03*
Y204000D02*
D03*
X95500Y210000D02*
D03*
X93500Y208000D02*
D03*
Y212000D02*
D03*
X130000Y201000D02*
D03*
Y203500D02*
D03*
X132500Y201000D02*
D03*
Y203500D02*
D03*
X135000Y201000D02*
D03*
Y203500D02*
D03*
X140500Y208000D02*
D03*
X138000D02*
D03*
X137500Y203500D02*
D03*
Y201000D02*
D03*
X85500Y208000D02*
D03*
X82000D02*
D03*
X85500Y211000D02*
D03*
X82000D02*
D03*
X140500Y211500D02*
D03*
X138000D02*
D03*
X132500Y208000D02*
D03*
X130000D02*
D03*
X132500Y211500D02*
D03*
X130000D02*
D03*
X58500D02*
D03*
X61500D02*
D03*
Y207000D02*
D03*
X58500D02*
D03*
X66500Y211500D02*
D03*
X69500D02*
D03*
X66500Y207500D02*
D03*
X69500D02*
D03*
X34500Y211500D02*
D03*
X37500D02*
D03*
Y207000D02*
D03*
X34500D02*
D03*
X42500Y211500D02*
D03*
X45500D02*
D03*
X42500Y207500D02*
D03*
X45500D02*
D03*
X21500D02*
D03*
X18500D02*
D03*
X21500Y211500D02*
D03*
X18500D02*
D03*
X10500Y207000D02*
D03*
X13500D02*
D03*
Y211500D02*
D03*
X10500D02*
D03*
X113000Y179000D02*
D03*
X108500D02*
D03*
X114500Y182500D02*
D03*
X111000D02*
D03*
X107500D02*
D03*
X114500Y185500D02*
D03*
X111000D02*
D03*
X107500D02*
D03*
X91050Y171950D02*
D03*
X16000Y193500D02*
D03*
X26000D02*
D03*
X21000D02*
D03*
X11000D02*
D03*
X270000Y205500D02*
D03*
X193870Y193370D02*
D03*
X257500Y203500D02*
D03*
Y206000D02*
D03*
Y208500D02*
D03*
Y211000D02*
D03*
X252500Y208000D02*
D03*
Y205500D02*
D03*
X250500Y206500D02*
D03*
Y204000D02*
D03*
X239000Y210000D02*
D03*
X237000Y208000D02*
D03*
Y212000D02*
D03*
X273500Y201000D02*
D03*
Y203500D02*
D03*
X276000Y201000D02*
D03*
Y203500D02*
D03*
X278500Y201000D02*
D03*
Y203500D02*
D03*
X284000Y208000D02*
D03*
X281500D02*
D03*
X281000Y203500D02*
D03*
Y201000D02*
D03*
X229000Y208000D02*
D03*
X225500D02*
D03*
X229000Y211000D02*
D03*
X225500D02*
D03*
X284000Y211500D02*
D03*
X281500D02*
D03*
X276000Y208000D02*
D03*
X273500D02*
D03*
X276000Y211500D02*
D03*
X273500D02*
D03*
X202000D02*
D03*
X205000D02*
D03*
Y207000D02*
D03*
X202000D02*
D03*
X210000Y211500D02*
D03*
X213000D02*
D03*
X210000Y207500D02*
D03*
X213000D02*
D03*
X178000Y211500D02*
D03*
X181000D02*
D03*
Y207000D02*
D03*
X178000D02*
D03*
X186000Y211500D02*
D03*
X189000D02*
D03*
X186000Y207500D02*
D03*
X189000D02*
D03*
X165000D02*
D03*
X162000D02*
D03*
X165000Y211500D02*
D03*
X162000D02*
D03*
X154000Y207000D02*
D03*
X157000D02*
D03*
Y211500D02*
D03*
X154000D02*
D03*
X256500Y179000D02*
D03*
X252000D02*
D03*
X258000Y182500D02*
D03*
X254500D02*
D03*
X251000D02*
D03*
X258000Y185500D02*
D03*
X254500D02*
D03*
X251000D02*
D03*
X234550Y171950D02*
D03*
X159500Y193500D02*
D03*
X169500D02*
D03*
X164500D02*
D03*
X154500D02*
D03*
X126500Y261500D02*
D03*
X50370Y249370D02*
D03*
X114000Y259500D02*
D03*
Y262000D02*
D03*
Y264500D02*
D03*
Y267000D02*
D03*
X109000Y264000D02*
D03*
Y261500D02*
D03*
X107000Y262500D02*
D03*
Y260000D02*
D03*
X95500Y266000D02*
D03*
X93500Y264000D02*
D03*
Y268000D02*
D03*
X130000Y257000D02*
D03*
Y259500D02*
D03*
X132500Y257000D02*
D03*
Y259500D02*
D03*
X135000Y257000D02*
D03*
Y259500D02*
D03*
X140500Y264000D02*
D03*
X138000D02*
D03*
X137500Y259500D02*
D03*
Y257000D02*
D03*
X85500Y264000D02*
D03*
X82000D02*
D03*
X85500Y267000D02*
D03*
X82000D02*
D03*
X140500Y267500D02*
D03*
X138000D02*
D03*
X132500Y264000D02*
D03*
X130000D02*
D03*
X132500Y267500D02*
D03*
X130000D02*
D03*
X58500D02*
D03*
X61500D02*
D03*
Y263000D02*
D03*
X58500D02*
D03*
X66500Y267500D02*
D03*
X69500D02*
D03*
X66500Y263500D02*
D03*
X69500D02*
D03*
X34500Y267500D02*
D03*
X37500D02*
D03*
Y263000D02*
D03*
X34500D02*
D03*
X42500Y267500D02*
D03*
X45500D02*
D03*
X42500Y263500D02*
D03*
X45500D02*
D03*
X21500D02*
D03*
X18500D02*
D03*
X21500Y267500D02*
D03*
X18500D02*
D03*
X10500Y263000D02*
D03*
X13500D02*
D03*
Y267500D02*
D03*
X10500D02*
D03*
X113000Y235000D02*
D03*
X108500D02*
D03*
X114500Y238500D02*
D03*
X111000D02*
D03*
X107500D02*
D03*
X114500Y241500D02*
D03*
X111000D02*
D03*
X107500D02*
D03*
X91050Y227950D02*
D03*
X16000Y249500D02*
D03*
X26000D02*
D03*
X21000D02*
D03*
X11000D02*
D03*
X270000Y261500D02*
D03*
X193870Y249370D02*
D03*
X257500Y259500D02*
D03*
Y262000D02*
D03*
Y264500D02*
D03*
Y267000D02*
D03*
X252500Y264000D02*
D03*
Y261500D02*
D03*
X250500Y262500D02*
D03*
Y260000D02*
D03*
X239000Y266000D02*
D03*
X237000Y264000D02*
D03*
Y268000D02*
D03*
X273500Y257000D02*
D03*
Y259500D02*
D03*
X276000Y257000D02*
D03*
Y259500D02*
D03*
X278500Y257000D02*
D03*
Y259500D02*
D03*
X284000Y264000D02*
D03*
X281500D02*
D03*
X281000Y259500D02*
D03*
Y257000D02*
D03*
X229000Y264000D02*
D03*
X225500D02*
D03*
X229000Y267000D02*
D03*
X225500D02*
D03*
X284000Y267500D02*
D03*
X281500D02*
D03*
X276000Y264000D02*
D03*
X273500D02*
D03*
X276000Y267500D02*
D03*
X273500D02*
D03*
X202000D02*
D03*
X205000D02*
D03*
Y263000D02*
D03*
X202000D02*
D03*
X210000Y267500D02*
D03*
X213000D02*
D03*
X210000Y263500D02*
D03*
X213000D02*
D03*
X178000Y267500D02*
D03*
X181000D02*
D03*
Y263000D02*
D03*
X178000D02*
D03*
X186000Y267500D02*
D03*
X189000D02*
D03*
X186000Y263500D02*
D03*
X189000D02*
D03*
X165000D02*
D03*
X162000D02*
D03*
X165000Y267500D02*
D03*
X162000D02*
D03*
X154000Y263000D02*
D03*
X157000D02*
D03*
Y267500D02*
D03*
X154000D02*
D03*
X256500Y235000D02*
D03*
X252000D02*
D03*
X258000Y238500D02*
D03*
X254500D02*
D03*
X251000D02*
D03*
X258000Y241500D02*
D03*
X254500D02*
D03*
X251000D02*
D03*
X234550Y227950D02*
D03*
X159500Y249500D02*
D03*
X169500D02*
D03*
X164500D02*
D03*
X154500D02*
D03*
X126500Y317500D02*
D03*
X50370Y305370D02*
D03*
X114000Y315500D02*
D03*
Y318000D02*
D03*
Y320500D02*
D03*
Y323000D02*
D03*
X109000Y320000D02*
D03*
Y317500D02*
D03*
X107000Y318500D02*
D03*
Y316000D02*
D03*
X95500Y322000D02*
D03*
X93500Y320000D02*
D03*
Y324000D02*
D03*
X130000Y313000D02*
D03*
Y315500D02*
D03*
X132500Y313000D02*
D03*
Y315500D02*
D03*
X135000Y313000D02*
D03*
Y315500D02*
D03*
X140500Y320000D02*
D03*
X138000D02*
D03*
X137500Y315500D02*
D03*
Y313000D02*
D03*
X85500Y320000D02*
D03*
X82000D02*
D03*
X85500Y323000D02*
D03*
X82000D02*
D03*
X140500Y323500D02*
D03*
X138000D02*
D03*
X132500Y320000D02*
D03*
X130000D02*
D03*
X132500Y323500D02*
D03*
X130000D02*
D03*
X58500D02*
D03*
X61500D02*
D03*
Y319000D02*
D03*
X58500D02*
D03*
X66500Y323500D02*
D03*
X69500D02*
D03*
X66500Y319500D02*
D03*
X69500D02*
D03*
X34500Y323500D02*
D03*
X37500D02*
D03*
Y319000D02*
D03*
X34500D02*
D03*
X42500Y323500D02*
D03*
X45500D02*
D03*
X42500Y319500D02*
D03*
X45500D02*
D03*
X21500D02*
D03*
X18500D02*
D03*
X21500Y323500D02*
D03*
X18500D02*
D03*
X10500Y319000D02*
D03*
X13500D02*
D03*
Y323500D02*
D03*
X10500D02*
D03*
X113000Y291000D02*
D03*
X108500D02*
D03*
X114500Y294500D02*
D03*
X111000D02*
D03*
X107500D02*
D03*
X114500Y297500D02*
D03*
X111000D02*
D03*
X107500D02*
D03*
X91050Y283950D02*
D03*
X16000Y305500D02*
D03*
X26000D02*
D03*
X21000D02*
D03*
X11000D02*
D03*
X270000Y317500D02*
D03*
X193870Y305370D02*
D03*
X257500Y315500D02*
D03*
Y318000D02*
D03*
Y320500D02*
D03*
Y323000D02*
D03*
X252500Y320000D02*
D03*
Y317500D02*
D03*
X250500Y318500D02*
D03*
Y316000D02*
D03*
X239000Y322000D02*
D03*
X237000Y320000D02*
D03*
Y324000D02*
D03*
X273500Y313000D02*
D03*
Y315500D02*
D03*
X276000Y313000D02*
D03*
Y315500D02*
D03*
X278500Y313000D02*
D03*
Y315500D02*
D03*
X284000Y320000D02*
D03*
X281500D02*
D03*
X281000Y315500D02*
D03*
Y313000D02*
D03*
X229000Y320000D02*
D03*
X225500D02*
D03*
X229000Y323000D02*
D03*
X225500D02*
D03*
X284000Y323500D02*
D03*
X281500D02*
D03*
X276000Y320000D02*
D03*
X273500D02*
D03*
X276000Y323500D02*
D03*
X273500D02*
D03*
X202000D02*
D03*
X205000D02*
D03*
Y319000D02*
D03*
X202000D02*
D03*
X210000Y323500D02*
D03*
X213000D02*
D03*
X210000Y319500D02*
D03*
X213000D02*
D03*
X178000Y323500D02*
D03*
X181000D02*
D03*
Y319000D02*
D03*
X178000D02*
D03*
X186000Y323500D02*
D03*
X189000D02*
D03*
X186000Y319500D02*
D03*
X189000D02*
D03*
X165000D02*
D03*
X162000D02*
D03*
X165000Y323500D02*
D03*
X162000D02*
D03*
X154000Y319000D02*
D03*
X157000D02*
D03*
Y323500D02*
D03*
X154000D02*
D03*
X256500Y291000D02*
D03*
X252000D02*
D03*
X258000Y294500D02*
D03*
X254500D02*
D03*
X251000D02*
D03*
X258000Y297500D02*
D03*
X254500D02*
D03*
X251000D02*
D03*
X234550Y283950D02*
D03*
X159500Y305500D02*
D03*
X169500D02*
D03*
X164500D02*
D03*
X154500D02*
D03*
D31*
X111000Y14250D02*
D03*
X254500D02*
D03*
X111000Y70250D02*
D03*
X254500D02*
D03*
X111000Y126250D02*
D03*
X254500D02*
D03*
X111000Y182250D02*
D03*
X254500D02*
D03*
X111000Y238250D02*
D03*
X254500D02*
D03*
X111000Y294250D02*
D03*
X254500D02*
D03*
D32*
X133750Y34250D02*
D03*
X277250D02*
D03*
X133750Y90250D02*
D03*
X277250D02*
D03*
X133750Y146250D02*
D03*
X277250D02*
D03*
X133750Y202250D02*
D03*
X277250D02*
D03*
X133750Y258250D02*
D03*
X277250D02*
D03*
X133750Y314250D02*
D03*
X277250D02*
D03*
D33*
X95500Y41500D02*
D03*
X239000D02*
D03*
X95500Y97500D02*
D03*
X239000D02*
D03*
X95500Y153500D02*
D03*
X239000D02*
D03*
X95500Y209500D02*
D03*
X239000D02*
D03*
X95500Y265500D02*
D03*
X239000D02*
D03*
X95500Y321500D02*
D03*
X239000D02*
D03*
D34*
X131289Y42500D02*
D03*
X274789D02*
D03*
X131289Y98500D02*
D03*
X274789D02*
D03*
X131289Y154500D02*
D03*
X274789D02*
D03*
X131289Y210500D02*
D03*
X274789D02*
D03*
X131289Y266500D02*
D03*
X274789D02*
D03*
X131289Y322500D02*
D03*
X274789D02*
D03*
D35*
X139289Y42750D02*
D03*
X282789D02*
D03*
X139289Y98750D02*
D03*
X282789D02*
D03*
X139289Y154750D02*
D03*
X282789D02*
D03*
X139289Y210750D02*
D03*
X282789D02*
D03*
X139289Y266750D02*
D03*
X282789D02*
D03*
X139289Y322750D02*
D03*
X282789D02*
D03*
D36*
X83705Y42500D02*
D03*
X227205D02*
D03*
X83705Y98500D02*
D03*
X227205D02*
D03*
X83705Y154500D02*
D03*
X227205D02*
D03*
X83705Y210500D02*
D03*
X227205D02*
D03*
X83705Y266500D02*
D03*
X227205D02*
D03*
X83705Y322500D02*
D03*
X227205D02*
D03*
D37*
X59852Y42000D02*
D03*
X203352D02*
D03*
X59852Y98000D02*
D03*
X203352D02*
D03*
X59852Y154000D02*
D03*
X203352D02*
D03*
X59852Y210000D02*
D03*
X203352D02*
D03*
X59852Y266000D02*
D03*
X203352D02*
D03*
X59852Y322000D02*
D03*
X203352D02*
D03*
D38*
X67852Y42250D02*
D03*
X211352D02*
D03*
X67852Y98250D02*
D03*
X211352D02*
D03*
X67852Y154250D02*
D03*
X211352D02*
D03*
X67852Y210250D02*
D03*
X211352D02*
D03*
X67852Y266250D02*
D03*
X211352D02*
D03*
X67852Y322250D02*
D03*
X211352D02*
D03*
D39*
X36000Y42000D02*
D03*
X12000D02*
D03*
X179500D02*
D03*
X155500D02*
D03*
X36000Y98000D02*
D03*
X12000D02*
D03*
X179500D02*
D03*
X155500D02*
D03*
X36000Y154000D02*
D03*
X12000D02*
D03*
X179500D02*
D03*
X155500D02*
D03*
X36000Y210000D02*
D03*
X12000D02*
D03*
X179500D02*
D03*
X155500D02*
D03*
X36000Y266000D02*
D03*
X12000D02*
D03*
X179500D02*
D03*
X155500D02*
D03*
X36000Y322000D02*
D03*
X12000D02*
D03*
X179500D02*
D03*
X155500D02*
D03*
M02*
