G04 Layer_Physical_Order=3*
G04 Layer_Color=128*
%FSLAX25Y25*%
%MOIN*%
G70*
G01*
G75*
%ADD28C,0.02000*%
%ADD29C,0.11874*%
%ADD30C,0.03200*%
D28*
X-20000Y336395D02*
G03*
X-20395Y336000I0J-395D01*
G01*
X307395D02*
G03*
X307000Y336395I-395J0D01*
G01*
Y-395D02*
G03*
X307395Y0I0J395D01*
G01*
X-20395D02*
G03*
X-20000Y-395I395J0D01*
G01*
X-20395Y0D02*
Y336000D01*
X-20000Y336395D02*
X307000D01*
X307395Y0D02*
Y336000D01*
X-20000Y-395D02*
X307000D01*
X0Y0D02*
X143500D01*
Y56000D01*
X0Y0D02*
Y56000D01*
X143500D01*
Y0D02*
X287000D01*
Y56000D01*
X143500Y0D02*
Y56000D01*
X287000D01*
X0D02*
X143500D01*
Y112000D01*
X0Y56000D02*
Y112000D01*
X143500D01*
Y56000D02*
X287000D01*
Y112000D01*
X143500Y56000D02*
Y112000D01*
X287000D01*
X0D02*
X143500D01*
Y168000D01*
X0Y112000D02*
Y168000D01*
X143500D01*
Y112000D02*
X287000D01*
Y168000D01*
X143500Y112000D02*
Y168000D01*
X287000D01*
X0D02*
X143500D01*
Y224000D01*
X0Y168000D02*
Y224000D01*
X143500D01*
Y168000D02*
X287000D01*
Y224000D01*
X143500Y168000D02*
Y224000D01*
X287000D01*
X0D02*
X143500D01*
Y280000D01*
X0Y224000D02*
Y280000D01*
X143500D01*
Y224000D02*
X287000D01*
Y280000D01*
X143500Y224000D02*
Y280000D01*
X287000D01*
X0D02*
X143500D01*
Y336000D01*
X0Y280000D02*
Y336000D01*
X143500D01*
Y280000D02*
X287000D01*
Y336000D01*
X143500Y280000D02*
Y336000D01*
X287000D01*
D29*
X-10000Y22500D02*
D03*
Y310000D02*
D03*
X297500D02*
D03*
Y22500D02*
D03*
D30*
X126500Y37500D02*
D03*
X50370Y25370D02*
D03*
X114000Y35500D02*
D03*
Y38000D02*
D03*
Y40500D02*
D03*
Y43000D02*
D03*
X95500Y42000D02*
D03*
X93500Y40000D02*
D03*
Y44000D02*
D03*
X130000Y33000D02*
D03*
Y35500D02*
D03*
X132500Y33000D02*
D03*
Y35500D02*
D03*
X135000Y33000D02*
D03*
Y35500D02*
D03*
X140500Y40000D02*
D03*
X138000D02*
D03*
X137500Y35500D02*
D03*
Y33000D02*
D03*
X140500Y43500D02*
D03*
X138000D02*
D03*
X66500D02*
D03*
X69500D02*
D03*
X66500Y39500D02*
D03*
X69500D02*
D03*
X42500Y43500D02*
D03*
X45500D02*
D03*
X42500Y39500D02*
D03*
X45500D02*
D03*
X21500D02*
D03*
X18500D02*
D03*
X21500Y43500D02*
D03*
X18500D02*
D03*
X91050Y3950D02*
D03*
X16000Y25500D02*
D03*
X26000D02*
D03*
X21000D02*
D03*
X11000D02*
D03*
X270000Y37500D02*
D03*
X193870Y25370D02*
D03*
X257500Y35500D02*
D03*
Y38000D02*
D03*
Y40500D02*
D03*
Y43000D02*
D03*
X239000Y42000D02*
D03*
X237000Y40000D02*
D03*
Y44000D02*
D03*
X273500Y33000D02*
D03*
Y35500D02*
D03*
X276000Y33000D02*
D03*
Y35500D02*
D03*
X278500Y33000D02*
D03*
Y35500D02*
D03*
X284000Y40000D02*
D03*
X281500D02*
D03*
X281000Y35500D02*
D03*
Y33000D02*
D03*
X284000Y43500D02*
D03*
X281500D02*
D03*
X210000D02*
D03*
X213000D02*
D03*
X210000Y39500D02*
D03*
X213000D02*
D03*
X186000Y43500D02*
D03*
X189000D02*
D03*
X186000Y39500D02*
D03*
X189000D02*
D03*
X165000D02*
D03*
X162000D02*
D03*
X165000Y43500D02*
D03*
X162000D02*
D03*
X234550Y3950D02*
D03*
X159500Y25500D02*
D03*
X169500D02*
D03*
X164500D02*
D03*
X154500D02*
D03*
X126500Y93500D02*
D03*
X50370Y81370D02*
D03*
X114000Y91500D02*
D03*
Y94000D02*
D03*
Y96500D02*
D03*
Y99000D02*
D03*
X95500Y98000D02*
D03*
X93500Y96000D02*
D03*
Y100000D02*
D03*
X130000Y89000D02*
D03*
Y91500D02*
D03*
X132500Y89000D02*
D03*
Y91500D02*
D03*
X135000Y89000D02*
D03*
Y91500D02*
D03*
X140500Y96000D02*
D03*
X138000D02*
D03*
X137500Y91500D02*
D03*
Y89000D02*
D03*
X140500Y99500D02*
D03*
X138000D02*
D03*
X66500D02*
D03*
X69500D02*
D03*
X66500Y95500D02*
D03*
X69500D02*
D03*
X42500Y99500D02*
D03*
X45500D02*
D03*
X42500Y95500D02*
D03*
X45500D02*
D03*
X21500D02*
D03*
X18500D02*
D03*
X21500Y99500D02*
D03*
X18500D02*
D03*
X91050Y59950D02*
D03*
X16000Y81500D02*
D03*
X26000D02*
D03*
X21000D02*
D03*
X11000D02*
D03*
X270000Y93500D02*
D03*
X193870Y81370D02*
D03*
X257500Y91500D02*
D03*
Y94000D02*
D03*
Y96500D02*
D03*
Y99000D02*
D03*
X239000Y98000D02*
D03*
X237000Y96000D02*
D03*
Y100000D02*
D03*
X273500Y89000D02*
D03*
Y91500D02*
D03*
X276000Y89000D02*
D03*
Y91500D02*
D03*
X278500Y89000D02*
D03*
Y91500D02*
D03*
X284000Y96000D02*
D03*
X281500D02*
D03*
X281000Y91500D02*
D03*
Y89000D02*
D03*
X284000Y99500D02*
D03*
X281500D02*
D03*
X210000D02*
D03*
X213000D02*
D03*
X210000Y95500D02*
D03*
X213000D02*
D03*
X186000Y99500D02*
D03*
X189000D02*
D03*
X186000Y95500D02*
D03*
X189000D02*
D03*
X165000D02*
D03*
X162000D02*
D03*
X165000Y99500D02*
D03*
X162000D02*
D03*
X234550Y59950D02*
D03*
X159500Y81500D02*
D03*
X169500D02*
D03*
X164500D02*
D03*
X154500D02*
D03*
X126500Y149500D02*
D03*
X50370Y137370D02*
D03*
X114000Y147500D02*
D03*
Y150000D02*
D03*
Y152500D02*
D03*
Y155000D02*
D03*
X95500Y154000D02*
D03*
X93500Y152000D02*
D03*
Y156000D02*
D03*
X130000Y145000D02*
D03*
Y147500D02*
D03*
X132500Y145000D02*
D03*
Y147500D02*
D03*
X135000Y145000D02*
D03*
Y147500D02*
D03*
X140500Y152000D02*
D03*
X138000D02*
D03*
X137500Y147500D02*
D03*
Y145000D02*
D03*
X140500Y155500D02*
D03*
X138000D02*
D03*
X66500D02*
D03*
X69500D02*
D03*
X66500Y151500D02*
D03*
X69500D02*
D03*
X42500Y155500D02*
D03*
X45500D02*
D03*
X42500Y151500D02*
D03*
X45500D02*
D03*
X21500D02*
D03*
X18500D02*
D03*
X21500Y155500D02*
D03*
X18500D02*
D03*
X91050Y115950D02*
D03*
X16000Y137500D02*
D03*
X26000D02*
D03*
X21000D02*
D03*
X11000D02*
D03*
X270000Y149500D02*
D03*
X193870Y137370D02*
D03*
X257500Y147500D02*
D03*
Y150000D02*
D03*
Y152500D02*
D03*
Y155000D02*
D03*
X239000Y154000D02*
D03*
X237000Y152000D02*
D03*
Y156000D02*
D03*
X273500Y145000D02*
D03*
Y147500D02*
D03*
X276000Y145000D02*
D03*
Y147500D02*
D03*
X278500Y145000D02*
D03*
Y147500D02*
D03*
X284000Y152000D02*
D03*
X281500D02*
D03*
X281000Y147500D02*
D03*
Y145000D02*
D03*
X284000Y155500D02*
D03*
X281500D02*
D03*
X210000D02*
D03*
X213000D02*
D03*
X210000Y151500D02*
D03*
X213000D02*
D03*
X186000Y155500D02*
D03*
X189000D02*
D03*
X186000Y151500D02*
D03*
X189000D02*
D03*
X165000D02*
D03*
X162000D02*
D03*
X165000Y155500D02*
D03*
X162000D02*
D03*
X234550Y115950D02*
D03*
X159500Y137500D02*
D03*
X169500D02*
D03*
X164500D02*
D03*
X154500D02*
D03*
X126500Y205500D02*
D03*
X50370Y193370D02*
D03*
X114000Y203500D02*
D03*
Y206000D02*
D03*
Y208500D02*
D03*
Y211000D02*
D03*
X95500Y210000D02*
D03*
X93500Y208000D02*
D03*
Y212000D02*
D03*
X130000Y201000D02*
D03*
Y203500D02*
D03*
X132500Y201000D02*
D03*
Y203500D02*
D03*
X135000Y201000D02*
D03*
Y203500D02*
D03*
X140500Y208000D02*
D03*
X138000D02*
D03*
X137500Y203500D02*
D03*
Y201000D02*
D03*
X140500Y211500D02*
D03*
X138000D02*
D03*
X66500D02*
D03*
X69500D02*
D03*
X66500Y207500D02*
D03*
X69500D02*
D03*
X42500Y211500D02*
D03*
X45500D02*
D03*
X42500Y207500D02*
D03*
X45500D02*
D03*
X21500D02*
D03*
X18500D02*
D03*
X21500Y211500D02*
D03*
X18500D02*
D03*
X91050Y171950D02*
D03*
X16000Y193500D02*
D03*
X26000D02*
D03*
X21000D02*
D03*
X11000D02*
D03*
X270000Y205500D02*
D03*
X193870Y193370D02*
D03*
X257500Y203500D02*
D03*
Y206000D02*
D03*
Y208500D02*
D03*
Y211000D02*
D03*
X239000Y210000D02*
D03*
X237000Y208000D02*
D03*
Y212000D02*
D03*
X273500Y201000D02*
D03*
Y203500D02*
D03*
X276000Y201000D02*
D03*
Y203500D02*
D03*
X278500Y201000D02*
D03*
Y203500D02*
D03*
X284000Y208000D02*
D03*
X281500D02*
D03*
X281000Y203500D02*
D03*
Y201000D02*
D03*
X284000Y211500D02*
D03*
X281500D02*
D03*
X210000D02*
D03*
X213000D02*
D03*
X210000Y207500D02*
D03*
X213000D02*
D03*
X186000Y211500D02*
D03*
X189000D02*
D03*
X186000Y207500D02*
D03*
X189000D02*
D03*
X165000D02*
D03*
X162000D02*
D03*
X165000Y211500D02*
D03*
X162000D02*
D03*
X234550Y171950D02*
D03*
X159500Y193500D02*
D03*
X169500D02*
D03*
X164500D02*
D03*
X154500D02*
D03*
X126500Y261500D02*
D03*
X50370Y249370D02*
D03*
X114000Y259500D02*
D03*
Y262000D02*
D03*
Y264500D02*
D03*
Y267000D02*
D03*
X95500Y266000D02*
D03*
X93500Y264000D02*
D03*
Y268000D02*
D03*
X130000Y257000D02*
D03*
Y259500D02*
D03*
X132500Y257000D02*
D03*
Y259500D02*
D03*
X135000Y257000D02*
D03*
Y259500D02*
D03*
X140500Y264000D02*
D03*
X138000D02*
D03*
X137500Y259500D02*
D03*
Y257000D02*
D03*
X140500Y267500D02*
D03*
X138000D02*
D03*
X66500D02*
D03*
X69500D02*
D03*
X66500Y263500D02*
D03*
X69500D02*
D03*
X42500Y267500D02*
D03*
X45500D02*
D03*
X42500Y263500D02*
D03*
X45500D02*
D03*
X21500D02*
D03*
X18500D02*
D03*
X21500Y267500D02*
D03*
X18500D02*
D03*
X91050Y227950D02*
D03*
X16000Y249500D02*
D03*
X26000D02*
D03*
X21000D02*
D03*
X11000D02*
D03*
X270000Y261500D02*
D03*
X193870Y249370D02*
D03*
X257500Y259500D02*
D03*
Y262000D02*
D03*
Y264500D02*
D03*
Y267000D02*
D03*
X239000Y266000D02*
D03*
X237000Y264000D02*
D03*
Y268000D02*
D03*
X273500Y257000D02*
D03*
Y259500D02*
D03*
X276000Y257000D02*
D03*
Y259500D02*
D03*
X278500Y257000D02*
D03*
Y259500D02*
D03*
X284000Y264000D02*
D03*
X281500D02*
D03*
X281000Y259500D02*
D03*
Y257000D02*
D03*
X284000Y267500D02*
D03*
X281500D02*
D03*
X210000D02*
D03*
X213000D02*
D03*
X210000Y263500D02*
D03*
X213000D02*
D03*
X186000Y267500D02*
D03*
X189000D02*
D03*
X186000Y263500D02*
D03*
X189000D02*
D03*
X165000D02*
D03*
X162000D02*
D03*
X165000Y267500D02*
D03*
X162000D02*
D03*
X234550Y227950D02*
D03*
X159500Y249500D02*
D03*
X169500D02*
D03*
X164500D02*
D03*
X154500D02*
D03*
X126500Y317500D02*
D03*
X50370Y305370D02*
D03*
X114000Y315500D02*
D03*
Y318000D02*
D03*
Y320500D02*
D03*
Y323000D02*
D03*
X95500Y322000D02*
D03*
X93500Y320000D02*
D03*
Y324000D02*
D03*
X130000Y313000D02*
D03*
Y315500D02*
D03*
X132500Y313000D02*
D03*
Y315500D02*
D03*
X135000Y313000D02*
D03*
Y315500D02*
D03*
X140500Y320000D02*
D03*
X138000D02*
D03*
X137500Y315500D02*
D03*
Y313000D02*
D03*
X140500Y323500D02*
D03*
X138000D02*
D03*
X66500D02*
D03*
X69500D02*
D03*
X66500Y319500D02*
D03*
X69500D02*
D03*
X42500Y323500D02*
D03*
X45500D02*
D03*
X42500Y319500D02*
D03*
X45500D02*
D03*
X21500D02*
D03*
X18500D02*
D03*
X21500Y323500D02*
D03*
X18500D02*
D03*
X91050Y283950D02*
D03*
X16000Y305500D02*
D03*
X26000D02*
D03*
X21000D02*
D03*
X11000D02*
D03*
X270000Y317500D02*
D03*
X193870Y305370D02*
D03*
X257500Y315500D02*
D03*
Y318000D02*
D03*
Y320500D02*
D03*
Y323000D02*
D03*
X239000Y322000D02*
D03*
X237000Y320000D02*
D03*
Y324000D02*
D03*
X273500Y313000D02*
D03*
Y315500D02*
D03*
X276000Y313000D02*
D03*
Y315500D02*
D03*
X278500Y313000D02*
D03*
Y315500D02*
D03*
X284000Y320000D02*
D03*
X281500D02*
D03*
X281000Y315500D02*
D03*
Y313000D02*
D03*
X284000Y323500D02*
D03*
X281500D02*
D03*
X210000D02*
D03*
X213000D02*
D03*
X210000Y319500D02*
D03*
X213000D02*
D03*
X186000Y323500D02*
D03*
X189000D02*
D03*
X186000Y319500D02*
D03*
X189000D02*
D03*
X165000D02*
D03*
X162000D02*
D03*
X165000Y323500D02*
D03*
X162000D02*
D03*
X234550Y283950D02*
D03*
X159500Y305500D02*
D03*
X169500D02*
D03*
X164500D02*
D03*
X154500D02*
D03*
M02*
